<svg height='100px' width='100px'  fill="#ffffff" xmlns="http://www.w3.org/2000/svg" data-name="Layer 1" viewBox="0 0 100 100" x="0px" y="0px"><title>A</title><path d="M34.75488,47.45734a9.27916,9.27916,0,0,0-.00049-10.29407l-5.147,5.14685Z"></path><path d="M21.852,50.06476a9.281,9.281,0,0,0,10.2959,0L27,44.91724Z"></path><path d="M24.39258,42.31012l-5.147-5.14685a9.28159,9.28159,0,0,0-.00049,10.29407Z"></path><path d="M32.14746,34.556a9.28037,9.28037,0,0,0-10.29443,0L27,39.703Z"></path><path d="M66.42383,45.58917a3.27857,3.27857,0,1,0-3.27881-3.2785A3.27842,3.27842,0,0,0,66.42383,45.58917Z"></path><path d="M73,39.01306a3.27857,3.27857,0,1,0-3.27881-3.27856A3.27843,3.27843,0,0,0,73,39.01306Z"></path><path d="M79.57617,45.58917a3.27857,3.27857,0,1,0-3.27881-3.2785A3.27842,3.27842,0,0,0,79.57617,45.58917Z"></path><path d="M13.38379,78.34613c9.56836,3.90076,13.14746-5.79779,17.958-13.666a15.67764,15.67764,0,0,1,13.38281-7.4765H55.27539a15.67824,15.67824,0,0,1,13.38281,7.4765c4.81055,7.86823,8.38916,17.56678,17.95752,13.666,8.25928-3.36694,10.41553-18.92664,6.47266-33.74768-4.252-15.98486-12.20606-26.24927-23.66846-23.34509-2.61572.66272-5.43017,2.90509-7.90967,5.9812a3.63183,3.63183,0,0,1-2.82373,1.36725h-17.373a3.63221,3.63221,0,0,1-2.82422-1.36719c-2.47949-3.07617-5.29346-5.31854-7.90918-5.98126C19.11719,18.34918,11.16357,28.61359,6.91113,44.59845,2.96881,59.41949,5.125,74.97919,13.38379,78.34613ZM73,29.31061a13,13,0,1,1-13,13A13.01509,13.01509,0,0,1,73,29.31061Zm-46,0a13,13,0,1,1-13,13A13.01509,13.01509,0,0,1,27,29.31061Z"></path><path d="M73,52.16528a3.27853,3.27853,0,1,0-3.27881-3.27856A3.27843,3.27843,0,0,0,73,52.16528Z"></path></svg>