<svg height='100px' width='100px'  fill="#ffffff" xmlns="http://www.w3.org/2000/svg" data-name="Layer 1" viewBox="0 0 64 64" x="0px" y="0px"><defs><style>.cls-1{fill:#ffffff;}</style></defs><title>Digital_Revisi</title><path class="cls-1" d="M40.28,17.07a2.63,2.63,0,0,0,1.79-.7,2.53,2.53,0,0,0,.35-.41,2.9,2.9,0,1,0-2.3-5h0a2.88,2.88,0,0,0-.7,1,2.61,2.61,0,0,0-.93.55,2.63,2.63,0,0,0,1.79,4.56Zm-.91-3.61a1.33,1.33,0,0,1,.66-.33.65.65,0,0,0,.51-.47,1.6,1.6,0,1,1,2.63,1.59,1.51,1.51,0,0,1-1.12.42.66.66,0,0,0-.59.36,1.33,1.33,0,1,1-2.09-1.57Z"></path><path class="cls-1" d="M21.2,12.18a2.75,2.75,0,1,0-2.75-2.75A2.75,2.75,0,0,0,21.2,12.18Zm0-4.2a1.45,1.45,0,1,1-1.45,1.45A1.45,1.45,0,0,1,21.2,8Z"></path><path class="cls-1" d="M30.37,4.56a2.28,2.28,0,1,0-2.28-2.28A2.28,2.28,0,0,0,30.37,4.56Zm0-3.27a1,1,0,1,1-1,1A1,1,0,0,1,30.37,1.3Z"></path><path class="cls-1" d="M50.19,30.41a3.08,3.08,0,0,0-2.73-3.06,3.08,3.08,0,0,0-3.63-2.7c-.58-2.27-3.3-3.77-4.66-3.9a4,4,0,0,0-3.6-3.11,3.62,3.62,0,0,0-7.13,0,4,4,0,0,0-3.6,3.11c-1.36.13-4.09,1.63-4.66,3.9a3.08,3.08,0,0,0-3.63,2.7,3.08,3.08,0,0,0-2.73,3.06,3,3,0,0,0,.5,1.64.65.65,0,0,0,0,.26l5.86,28.51a.65.65,0,0,0,.49.5L31.85,64,32,64l.15,0,11.19-2.66a.65.65,0,0,0,.49-.5l5.86-28.51a.65.65,0,0,0,0-.26A3,3,0,0,0,50.19,30.41ZM17.11,28.65a.65.65,0,0,0,.73-.73,1.72,1.72,0,0,1,0-.24,1.78,1.78,0,0,1,1.78-1.78,1.76,1.76,0,0,1,.32,0c.24.08,1.26.48,1.41,1.34a.65.65,0,0,0,.6.54h0a.65.65,0,0,0,.63-.47A2.06,2.06,0,0,1,25,25.93a.65.65,0,0,0,.21-1.28A3.32,3.32,0,0,0,22,25.77a3.37,3.37,0,0,0-.61-.54C21.62,23.38,24.21,22,25,22l.24,0a.65.65,0,0,0,.72-.52,2.85,2.85,0,0,1,2.84-2.61H29a.65.65,0,0,0,.49-.18.66.66,0,0,0,.21-.48,2.32,2.32,0,1,1,4.65,0,.65.65,0,0,0,.7.65h.15a2.78,2.78,0,0,1,2.66,2,3.21,3.21,0,0,0-1.56,1,4.06,4.06,0,0,0-1.77-1.11.65.65,0,0,0-.35,1.25s1.3.39,1.46,1.36a.65.65,0,0,0,.61.54h0a.65.65,0,0,0,.63-.48,2.05,2.05,0,0,1,2.46-1.41h.05c1,.29,3,1.5,3.23,3.09a2.82,2.82,0,0,0-1.3,1.87.65.65,0,0,0,.53.75H42a.65.65,0,0,0,.64-.54c.13-.81,1-1.21,1.35-1.32a1.75,1.75,0,0,1,.45-.06,1.78,1.78,0,0,1,1.78,1.78,1.72,1.72,0,0,1,0,.24.65.65,0,0,0,.73.73,1.8,1.8,0,0,1,2,1.76,1.78,1.78,0,0,1-2.26,1.71.65.65,0,0,0-.77.36,1.92,1.92,0,0,1-1.3,1.09h0a.62.62,0,0,0-.39.06h-.06A1.91,1.91,0,0,1,43,33.3a.65.65,0,0,0-.82.07A1.94,1.94,0,0,1,40,33.7a.65.65,0,0,0-.94.43,1.91,1.91,0,0,1-.85,1.2l0,0a1.91,1.91,0,0,1-1.93,0,.65.65,0,0,0-.7,0A5.13,5.13,0,0,1,32,36.67a4.75,4.75,0,0,1-2.84-.85,3.91,3.91,0,0,0,.84-1.7,3.82,3.82,0,0,0,3.81-.91.65.65,0,0,0-.92-.92,2.73,2.73,0,0,1-3.12.35.65.65,0,0,0-1,.54,2.68,2.68,0,0,1-1.14,2.23,1.85,1.85,0,0,1-1.8-.06l0,0A1.91,1.91,0,0,1,25,34.13.65.65,0,0,0,24,33.7a1.94,1.94,0,0,1-2.24-.32A.65.65,0,0,0,21,33.3a1.91,1.91,0,0,1-1.08.33h-.06a.63.63,0,0,0-.39-.06h0a1.92,1.92,0,0,1-1.3-1.09.65.65,0,0,0-.77-.36,1.78,1.78,0,0,1-2.26-1.71A1.8,1.8,0,0,1,17.11,28.65Zm7.74,7.58L27.5,61.61,25,61,20.35,34.88a3.2,3.2,0,0,0,.92-.26,3.24,3.24,0,0,0,2.68.49A3.19,3.19,0,0,0,24.85,36.23Zm1.37.63a3.25,3.25,0,0,0,.63.07,3.19,3.19,0,0,0,.75-.1h0a.64.64,0,0,0,.22,0l.23-.11a6.33,6.33,0,0,0,3.26,1.26V62.53l-2.51-.6Zm6.43,1.09a6.14,6.14,0,0,0,3.26-1.27,3.11,3.11,0,0,0,1.87.18L35.16,61.93l-2.51.6Zm6.5-1.72A3.19,3.19,0,0,0,40,35.12a3.24,3.24,0,0,0,2.68-.49,3.2,3.2,0,0,0,.92.26L39,61l-2.47.59ZM15.84,33.29a3,3,0,0,0,1.36.18A3.22,3.22,0,0,0,19,34.8l4.63,25.89-2.28-.54Zm26.8,26.86-2.28.54L45,34.8a3.22,3.22,0,0,0,1.81-1.33,3,3,0,0,0,1.36-.18Z"></path></svg>