<?xml version="1.0" encoding="UTF-8" standalone="no"?>
<svg
   xmlns:dc="http://purl.org/dc/elements/1.1/"
   xmlns:cc="http://creativecommons.org/ns#"
   xmlns:rdf="http://www.w3.org/1999/02/22-rdf-syntax-ns#"
   xmlns:svg="http://www.w3.org/2000/svg"
   xmlns="http://www.w3.org/2000/svg"
   xmlns:sodipodi="http://sodipodi.sourceforge.net/DTD/sodipodi-0.dtd"
   xmlns:inkscape="http://www.inkscape.org/namespaces/inkscape"
   height="92.100365"
   width="95.900734"
   version="1.1"
   x="0px"
   y="0px"
   viewBox="0 0 95.900734 92.100365"
   style="fill:#ffffff"
   xml:space="preserve"
   id="svg949"
   sodipodi:docname="music.svg"
   inkscape:version="0.92.5 (2060ec1f9f, 2020-04-08)"><metadata
     id="metadata955"><rdf:RDF><cc:Work
         rdf:about=""><dc:format>image/svg+xml</dc:format><dc:type
           rdf:resource="http://purl.org/dc/dcmitype/StillImage" /><dc:title></dc:title></cc:Work></rdf:RDF></metadata><defs
     id="defs953" /><sodipodi:namedview
     pagecolor="#ffffff"
     bordercolor="#666666"
     borderopacity="1"
     objecttolerance="10"
     gridtolerance="10"
     guidetolerance="10"
     inkscape:pageopacity="0"
     inkscape:pageshadow="2"
     inkscape:window-width="1920"
     inkscape:window-height="1080"
     id="namedview951"
     showgrid="false"
     inkscape:pagecheckerboard="true"
     fit-margin-top="0"
     fit-margin-left="0"
     fit-margin-right="0"
     fit-margin-bottom="0"
     inkscape:zoom="8.53"
     inkscape:cx="48.000366"
     inkscape:cy="46.4"
     inkscape:window-x="0"
     inkscape:window-y="0"
     inkscape:window-maximized="1"
     inkscape:current-layer="svg949" /><path
     d="m 68.800366,19.400366 -49.6,18 c -1,0.4 -1.5,1.5 -1.2,2.5 l 4.1,11.3 c 0.4,1 1.5,1.5 2.5,1.2 l 49.6,-18.1 c 1,-0.4 1.5,-1.5 1.2,-2.5 l -4.1,-11.3 c -0.4,-1 -1.5,-1.5 -2.5,-1.1 z m -39.2,28.9 c -2.9,1.1 -6.1,-0.4 -7.2,-3.4 -1.1,-2.9 0.4,-6.1 3.4,-7.2 2.9,-1.1 6.1,0.4 7.2,3.4 1,2.9 -0.5,6.1 -3.4,7.2 z m 29.9,-13.7 c 0.3,0.9 -0.1,1.9 -1.1,2.3 l -20.1,7.3 c -0.9,0.3 -1.9,-0.1 -2.3,-1.1 l -2,-5.6 c -0.3,-0.9 0.1,-1.9 1.1,-2.3 l 20.1,-7.3 c 0.9,-0.3 1.9,0.1 2.3,1.1 z m 7.9,-0.1 c -2.9,1.1 -6.1,-0.4 -7.2,-3.4 -1.1,-2.9 0.4,-6.1 3.4,-7.2 2.9,-1.1 6.1,0.4 7.2,3.4 1,2.9 -0.5,6.1 -3.4,7.2 z"
     id="path943"
     inkscape:connector-curvature="0" /><path
     d="M 75.100366,0.20036629 1.9003663,26.800366 c -1.50000001,0.5 -2.30000001,2.2 -1.70000001,3.7 l 16.89999971,46.6 c 0.5,1.5 2.2,2.3 3.7,1.7 l 4.9,-1.8 v -0.1 l -1.6,-10.2 c -0.1,-0.8 0.3,-1.6 1.1,-1.9 l 56.4,-20.5 c 0.8,-0.3 1.6,0 2.1,0.7 l 5.4,8.9 4.9,-1.8 c 1.5,-0.5 2.3,-2.2 1.7,-3.7 l -16.8,-46.4999997 c -0.6,-1.50000001 -2.2,-2.30000001 -3.8,-1.70000001 z M 1.9003663,28.200366 c 0.7,-0.2 1.4,0.1 1.6,0.7 0.2,0.6 -0.1,1.4 -0.8,1.6 -0.6,0.2 -1.4,-0.1 -1.6,-0.8 -0.1,-0.5 0.2,-1.3 0.8,-1.5 z m 18.1999997,49.6 c -0.7,0.2 -1.4,-0.1 -1.6,-0.8 -0.2,-0.6 0.1,-1.4 0.8,-1.6 0.6,-0.2 1.4,0.1 1.6,0.7 0.2,0.7 -0.2,1.4 -0.8,1.7 z m 66.5,-41.3 c 0.5,1.4 -0.2,2.9 -1.6,3.4 l -65.1,23.7 c -1.4,0.5 -2.9,-0.2 -3.4,-1.6 l -10.5999997,-29.2 c -0.5,-1.4 0.2,-2.9 1.6,-3.4 L 72.600366,5.7003663 c 1.4,-0.5 2.9,0.2 3.4,1.6 z m 7.4,14.4 c -0.6,0.2 -1.4,-0.1 -1.6,-0.8 -0.2,-0.6 0.1,-1.4 0.8,-1.6 0.6,-0.2 1.4,0.1 1.6,0.7 0.2,0.7 -0.2,1.5 -0.8,1.7 z m -17.2,-47.2999997 c -0.6,0.2 -1.4,-0.1 -1.6,-0.8 -0.2,-0.6 0.1,-1.4 0.8,-1.6 0.6,-0.2 1.4,0.1 1.6,0.7 0.2,0.7 -0.2,1.5 -0.8,1.7 z"
     id="path945"
     inkscape:connector-curvature="0" /><path
     d="m 86.100366,73.900366 c -2,-0.9 -4.3,-0.9 -6.3,-0.8 h -0.3 c 0,-2.2 0.1,-4.8 0.1,-7.2 0,-3.1 0.1,-6.1 0.1,-8.4 l 8.9,-3.2 -5.3,-8.8 c -0.3,-0.5 -0.9,-0.7 -1.5,-0.5 l -56.3,20.3 c -0.5,0.2 -0.9,0.8 -0.8,1.3 l 0.1,0.4 0.5,2.9 1.1,6.9 9.2,-3.4 c 2.1,1.1 4.8,1.9 6.9,1.9 l 9.5,0.3 c 1.7,-0.1 7.1,-0.4 9.5,1.5 0.5,0.6 1.2,1.5 1.5,2.6 0.7,3 -0.2,5.5 -1.5,7.3 -0.3,-0.8 -0.5,-1.6 -0.7,-2.4 -0.6,-2.5 -1.3,-5.2 -3.9,-6.5 -1.2,-0.6 -2.6,-0.7 -4,-0.3 -1.8,0.5 -3.2,1.7 -4,3.4 -0.9,2 -1,4.4 -0.1,6.4 1,2.3 3,4.1 5.2,4.4 0.4,0.1 0.8,0.1 1.2,0.1 2,0 3.6,-0.8 5.4,-2.6 0.2,-0.2 0.4,-0.4 0.6,-0.6 0.6,1 1.3,1.8 2.5,2.4 1.6,0.8 3.4,0.8 5.1,0 3.2,-1.4 3.9,-3 4.6,-6.2 0.3,-1.4 0.2,-2.9 0,-4.4 -0.1,-1 -0.2,-2 -0.1,-2.9 0.1,-2 1.3,-2.9 2,-3.2 0.8,-0.4 1.8,-0.5 1.8,-0.5 0.3,0 0.8,0 1.4,0 0,0.5 0,0.9 0,1.4 0,0.4 0,1.7 0.1,3 0.1,1.2 0.3,2.1 0.9,3.1 0.6,1.1 1.4,2 2.3,2.5 1.2,0.7 3.1,1.3 5.2,-0.3 1.1,-0.8 1.7,-1.5 2.1,-2.5 1.2,-2.8 -0.3,-6.3 -3,-7.4 z m -51.9,-1.8 c -0.8,0.3 -1.8,-0.1 -2.1,-1 -0.3,-0.8 0.1,-1.8 1,-2.1 0.8,-0.3 1.8,0.1 2.1,1 0.3,0.8 -0.2,1.8 -1,2.1 z m 25.8,16.7 c -1.6,1.6 -3.2,2.6 -5.8,2.2 -1.8,-0.3 -3.6,-1.8 -4.4,-3.8 -0.8,-1.8 -0.7,-3.9 0.1,-5.6 0.7,-1.4 1.9,-2.4 3.4,-2.9 0.4,-0.1 0.9,-0.2 1.3,-0.2 0.7,0 1.3,0.2 1.9,0.4 2.2,1.1 2.8,3.4 3.4,5.8 0.3,1.1 0.5,2.1 0.9,3.1 -0.3,0.5 -0.5,0.8 -0.8,1 z m 18.4,-36.2 c 0.8,-0.3 1.8,0.1 2.1,1 0.3,0.8 -0.1,1.8 -1,2.1 -0.8,0.3 -1.8,-0.1 -2.1,-1 -0.3,-0.9 0.2,-1.8 1,-2.1 z m -5.7,0.4 c 0.7,-0.2 1.4,0.1 1.6,0.8 0.2,0.6 -0.1,1.4 -0.8,1.6 -0.7,0.2 -1.4,-0.1 -1.6,-0.8 -0.2,-0.6 0.2,-1.3 0.8,-1.6 z m -17.9,4.6 c 0.7,-0.2 1.4,0.1 1.6,0.8 0.2,0.7 -0.1,1.4 -0.7,1.6 -0.7,0.2 -1.4,-0.1 -1.6,-0.8 -0.3,-0.6 0,-1.4 0.7,-1.6 z m -17,8.2 c 0.7,-0.2 1.4,0.1 1.6,0.8 0.2,0.7 -0.1,1.4 -0.8,1.6 -0.7,0.2 -1.4,-0.1 -1.6,-0.7 -0.2,-0.8 0.1,-1.5 0.8,-1.7 z m 40.9,0 c 0,2.5 -0.1,5 -0.1,7.3 -0.6,0 -1.1,0 -1.5,0 0,0 -1.1,0.2 -2.1,0.6 -0.9,0.4 -2.5,1.5 -2.6,4.1 0,1 0.1,2 0.1,3 0.1,1.4 0.2,2.9 0,4.1 -0.7,3 -1.2,4.3 -4,5.5 -1.4,0.6 -3,0.6 -4.3,0 -1.1,-0.5 -1.8,-1.3 -2.2,-2.3 2,-2.6 2.7,-5.6 2,-8.7 -0.3,-1.1 -1,-2.3 -2,-3 -2.4,-1.9 -6.9,-1.9 -10.1,-1.7 l -9.5,-0.3 c -1.7,0 -3.8,-0.6 -5.7,-1.4 l 42,-15.3 c 0.1,2.3 0,5.2 0,8.1 z m 9.5,15.1 c -0.3,0.8 -0.8,1.4 -1.8,2.1 -1.4,1 -2.8,1.1 -4.2,0.2 -0.8,-0.5 -1.4,-1.2 -1.9,-2.1 -0.5,-0.9 -0.7,-1.7 -0.8,-2.7 -0.1,-1.2 -0.1,-2.5 -0.1,-2.9 0,-0.4 0,-0.9 0,-1.4 h 0.3 c 1.9,0 4,0 5.9,0.8 2.3,0.8 3.5,3.7 2.6,6 z"
     id="path947"
     inkscape:connector-curvature="0" /></svg>