<?xml version="1.0" encoding="UTF-8" standalone="no"?>
<svg
   xmlns:dc="http://purl.org/dc/elements/1.1/"
   xmlns:cc="http://creativecommons.org/ns#"
   xmlns:rdf="http://www.w3.org/1999/02/22-rdf-syntax-ns#"
   xmlns:svg="http://www.w3.org/2000/svg"
   xmlns="http://www.w3.org/2000/svg"
   xmlns:sodipodi="http://sodipodi.sourceforge.net/DTD/sodipodi-0.dtd"
   xmlns:inkscape="http://www.inkscape.org/namespaces/inkscape"
   height="68.720001"
   width="87.109001"
   version="1.1"
   x="0px"
   y="0px"
   viewBox="0 0 87.109001 68.720001"
   enable-background="new 0 0 100 100"
   xml:space="preserve"
   id="svg1053"
   sodipodi:docname="places.svg"
   style="fill:#ffffff"
   inkscape:version="0.92.5 (2060ec1f9f, 2020-04-08)"><metadata
     id="metadata1059"><rdf:RDF><cc:Work
         rdf:about=""><dc:format>image/svg+xml</dc:format><dc:type
           rdf:resource="http://purl.org/dc/dcmitype/StillImage" /><dc:title></dc:title></cc:Work></rdf:RDF></metadata><defs
     id="defs1057" /><sodipodi:namedview
     pagecolor="#ffffff"
     bordercolor="#666666"
     borderopacity="1"
     objecttolerance="10"
     gridtolerance="10"
     guidetolerance="10"
     inkscape:pageopacity="0"
     inkscape:pageshadow="2"
     inkscape:window-width="1920"
     inkscape:window-height="1043"
     id="namedview1055"
     showgrid="false"
     inkscape:pagecheckerboard="true"
     fit-margin-top="0"
     fit-margin-left="0"
     fit-margin-right="0"
     fit-margin-bottom="0"
     inkscape:zoom="7.99"
     inkscape:cx="43.65"
     inkscape:cy="35.051"
     inkscape:window-x="0"
     inkscape:window-y="0"
     inkscape:window-maximized="1"
     inkscape:current-layer="svg1053" /><g
     id="g1051"
     transform="translate(-6.35,-16.331)"><path
       d="M 93.459,84.995 V 29.225 L 65.052,16.331 65.039,16.36 35.618,28.922 6.35,16.425 v 55.77 l 28.588,12.856 0.03,-0.068 29.231,-12.482 z M 50.488,74.061 52.715,64.555 c 0.618,-0.721 1.256,-1.431 1.914,-2.115 L 52.061,73.4 Z m -2.222,0.934 1.628,-7.012 c 0.239,-0.295 0.476,-0.588 0.708,-0.876 0.331,-0.408 0.656,-0.808 0.973,-1.191 0.1,-0.123 0.201,-0.246 0.305,-0.368 l -2.06,8.794 z M 32.916,79.457 25.63,67.449 c 0.783,0.914 1.578,1.916 2.386,3.024 1.108,1.519 2.214,2.754 3.325,3.726 l 3.45,6.046 0.148,-0.083 v 0.191 z M 36.702,32.774 63.29,21.598 v 34.408 c -2.139,0.604 -4.061,1.686 -5.818,3.046 l -0.022,-0.005 -0.006,0.026 c -2.355,1.829 -4.419,4.149 -6.324,6.47 -0.316,0.387 -0.641,0.786 -0.973,1.195 -3.48,4.295 -7.799,9.628 -12.797,9.513 -0.216,-0.004 -0.432,-0.024 -0.647,-0.049 V 32.774 Z m 28.351,33.12 2.24,3.714 -2.24,-0.956 z m 3.163,4.107 -3.163,-5.244 v -2.388 l 4.965,8.4 z m 2.714,1.159 -5.877,-9.946 v -2.403 l 7.771,13.159 z m 2.806,1.198 -8.684,-14.703 v -1.409 c 0.142,-0.022 0.28,-0.047 0.423,-0.063 l 10.14,16.979 z m 2.799,1.196 -10.413,-17.435 c 0.44,-0.033 0.891,-0.041 1.348,-0.031 l 10.956,18.273 z m 2.812,1.201 -11.172,-18.634 c 0.477,0.033 0.962,0.088 1.459,0.173 L 80.64,74.487 c -0.062,0.32 -0.118,0.575 -0.16,0.751 z m -4.181,-16.566 5.785,9.675 0.007,-0.004 c 0.09,0.844 0.119,1.665 0.11,2.438 l -7.883,-13.01 c 0.438,0.168 0.88,0.348 1.333,0.555 0.225,0.112 0.438,0.227 0.648,0.346 z m 1.118,0.728 c 2.657,1.959 3.917,4.723 4.449,7.438 z m -3.978,-1.944 8.723,14.396 c -0.05,0.843 -0.142,1.603 -0.236,2.234 L 70.413,56.449 c 0.614,0.134 1.247,0.308 1.893,0.524 z m 2.465,0.339 C 71.092,55.632 67.889,55.21 65.053,55.628 V 36.017 c 0.452,-0.186 0.907,-0.339 1.355,-0.457 0.192,-0.05 0.309,-0.247 0.258,-0.439 -0.05,-0.193 -0.245,-0.309 -0.439,-0.259 -0.39,0.101 -0.783,0.23 -1.174,0.38 V 20.99 L 89.354,32.022 V 79.027 L 81.028,75.473 C 81.437,73.791 83.97,61.855 74.771,57.312 Z M 34.939,75.763 c -1.05,-0.396 -2.092,-1.038 -3.132,-1.933 l -0.022,-0.038 -0.012,0.007 C 30.681,72.855 29.59,71.632 28.491,70.127 19.157,57.336 11.302,57.802 10.369,57.91 V 33.13 l 5.575,2.341 -0.028,-10.635 19.022,7.993 v 42.934 z m -19.61,-51.174 0.026,9.998 -4.986,-2.094 v -9.986 z m -4.96,42.809 1.763,2.852 -1.763,-0.781 z m 2.715,3.274 -2.715,-4.392 v -2.411 l 4.616,7.645 z m 2.837,1.256 -5.54,-9.176 -0.012,0.006 v -2.359 l 7.461,12.375 z m 2.846,1.261 -8.398,-13.931 v -0.803 l 0.007,0.046 c 0.018,-0.003 0.391,-0.052 1.057,-0.006 L 20.6,74.001 Z m 2.757,1.221 -9.363,-15.837 c 0.464,0.067 1.011,0.177 1.63,0.353 l 9.651,16.334 z m 2.843,1.26 -9.737,-16.479 c 0.513,0.18 1.065,0.4 1.651,0.677 l 10.031,16.664 z m 2.881,1.275 -9.98,-16.578 c 0.668,0.359 1.372,0.79 2.109,1.3 l 9.743,16.108 z m 2.809,1.245 -9.442,-15.608 c 0.959,0.749 1.961,1.632 2.998,2.677 l 8.363,13.782 z m 4.882,1.13 -2.374,-4.162 c 0.786,0.545 1.576,0.956 2.374,1.235 z m 2.396,-2.482 c 0.063,0.002 0.125,0.003 0.189,0.003 0.354,0 0.702,-0.026 1.047,-0.074 l -0.59,2.502 0.076,0.017 -1.355,0.57 v -3.061 c 0.21,0.023 0.421,0.038 0.633,0.043 z m 1.867,-0.187 c 0.652,-0.144 1.288,-0.365 1.911,-0.653 l -0.542,2.231 -1.933,0.812 z m 2.599,-0.999 c 0.661,-0.359 1.304,-0.788 1.931,-1.269 l -0.681,2.802 -1.807,0.76 z m 2.683,-1.875 c 0.627,-0.53 1.24,-1.106 1.834,-1.712 l -0.95,4.146 -1.643,0.69 z m 2.627,-2.548 c 0.67,-0.727 1.317,-1.478 1.941,-2.227 l -1.456,6.274 -1.562,0.656 z m 8.307,-9.586 c 0.584,-0.568 1.184,-1.113 1.803,-1.625 l -2.915,12.438 -1.575,0.662 z m 2.543,-2.21 c 0.56,-0.423 1.134,-0.819 1.728,-1.179 l -3.139,13.259 -1.577,0.663 z m 2.426,-1.58 c 0.499,-0.271 1.012,-0.514 1.538,-0.729 l -3.134,13.448 -1.572,0.66 z m 2.201,-0.983 c 0.23,-0.083 0.465,-0.16 0.702,-0.229 v 3.372 l -2.254,9.614 -1.575,0.663 z m 0.702,5.715 v 6.095 l -1.586,0.667 z M 91.695,82.326 65.053,70.949 v -1.66 L 89.94,79.916 V 31.643 L 65.053,20.344 V 18.267 L 91.696,30.362 V 82.326 Z M 63.29,19.023 v 1.938 L 36.702,32.138 V 30.377 Z M 8.112,71.056 V 19.094 l 26.827,11.455 v 1.643 L 9.782,21.621 v 48.23 l 22.727,10.066 0.003,0.004 10e-4,-0.002 2.426,1.075 v 2.125 z m 28.59,11.27 v -1.834 l 13.527,-5.686 0.081,0.021 0.013,-0.06 2.222,-0.934 0.018,0.003 0.003,-0.012 10.726,-4.509 v 1.656 z"
       id="path965"
       inkscape:connector-curvature="0" /><path
       d="m 80.989,49.407 2.039,-1.57 -2.412,-2.968 -2.039,1.57 -2.042,-2.513 -2.509,1.929 2.041,2.512 -2.041,1.569 2.413,2.97 2.042,-1.571 2.04,2.513 2.507,-1.928 z m -2.412,1.114 -2.042,1.57 -1.672,-2.057 2.041,-1.57 -2.041,-2.512 1.576,-1.213 2.042,2.513 2.04,-1.57 1.67,2.057 -2.04,1.569 2.04,2.515 -1.575,1.209 z"
       id="path967"
       inkscape:connector-curvature="0" /><path
       d="m 78.057,42.916 c 0.021,0.147 0.146,0.254 0.292,0.254 0.012,0 0.024,0 0.039,-0.002 0.159,-0.022 0.273,-0.169 0.252,-0.33 -0.003,-0.019 -0.061,-0.445 -0.28,-1.101 -0.052,-0.154 -0.221,-0.236 -0.372,-0.185 -0.155,0.051 -0.237,0.217 -0.186,0.372 0.2,0.598 0.255,0.988 0.255,0.992 z"
       id="path969"
       inkscape:connector-curvature="0" /><path
       d="m 52.555,54.626 c 0.032,0.011 0.067,0.016 0.1,0.016 0.157,0 0.302,-0.103 0.348,-0.261 0.193,-0.673 0.377,-1.365 0.54,-2.06 0.047,-0.194 -0.074,-0.388 -0.269,-0.434 -0.196,-0.046 -0.388,0.075 -0.432,0.269 -0.163,0.683 -0.342,1.363 -0.533,2.022 -0.057,0.192 0.053,0.393 0.246,0.448 z"
       id="path971"
       inkscape:connector-curvature="0" /><path
       d="m 24.931,61.799 c 0.072,0.078 0.169,0.119 0.268,0.119 0.086,0 0.173,-0.03 0.241,-0.093 0.149,-0.133 0.161,-0.362 0.027,-0.51 -0.457,-0.508 -0.891,-1.03 -1.327,-1.601 -0.119,-0.16 -0.346,-0.188 -0.505,-0.068 -0.157,0.119 -0.19,0.346 -0.069,0.505 0.448,0.587 0.893,1.126 1.365,1.648 z"
       id="path973"
       inkscape:connector-curvature="0" /><path
       d="m 21.087,56.467 0.476,0.757 c 0.068,0.109 0.186,0.167 0.304,0.167 0.067,0 0.134,-0.017 0.194,-0.055 0.168,-0.106 0.218,-0.331 0.112,-0.499 l -0.475,-0.754 c -0.22,-0.352 -0.437,-0.696 -0.651,-1.033 -0.109,-0.168 -0.333,-0.216 -0.499,-0.109 -0.168,0.108 -0.217,0.331 -0.109,0.499 0.214,0.333 0.428,0.677 0.648,1.027 z"
       id="path975"
       inkscape:connector-curvature="0" /><path
       d="m 16.854,51.356 c 0.54,0.361 1.04,0.793 1.53,1.317 0.072,0.076 0.167,0.114 0.265,0.114 0.087,0 0.177,-0.032 0.246,-0.097 0.146,-0.137 0.153,-0.365 0.018,-0.511 -0.529,-0.565 -1.07,-1.03 -1.656,-1.424 -0.163,-0.11 -0.388,-0.066 -0.5,0.099 -0.113,0.167 -0.069,0.392 0.097,0.502 z"
       id="path977"
       inkscape:connector-curvature="0" /><path
       d="m 37.761,69.043 c 0.363,0.033 0.727,0.05 1.084,0.05 0.004,0 0.008,0 0.011,0 0.362,0 0.726,-0.017 1.083,-0.052 0.197,-0.021 0.343,-0.197 0.322,-0.395 -0.02,-0.199 -0.192,-0.336 -0.395,-0.324 -0.333,0.033 -0.672,0.051 -1.01,0.051 -0.349,-0.01 -0.685,-0.017 -1.028,-0.049 -0.192,-0.016 -0.375,0.127 -0.393,0.326 -0.017,0.199 0.128,0.373 0.326,0.393 z"
       id="path979"
       inkscape:connector-curvature="0" /><path
       d="m 44.877,66.382 c -0.566,0.406 -1.158,0.757 -1.758,1.039 -0.181,0.084 -0.258,0.299 -0.174,0.479 0.062,0.132 0.192,0.209 0.327,0.209 0.052,0 0.104,-0.012 0.155,-0.035 0.639,-0.301 1.268,-0.673 1.871,-1.106 0.161,-0.116 0.199,-0.342 0.082,-0.503 -0.117,-0.164 -0.342,-0.199 -0.503,-0.083 z"
       id="path981"
       inkscape:connector-curvature="0" /><path
       d="m 50.51,59.867 c 0.051,0.023 0.104,0.035 0.156,0.035 0.135,0 0.264,-0.075 0.324,-0.204 0.304,-0.627 0.593,-1.284 0.86,-1.955 0.074,-0.186 -0.017,-0.396 -0.199,-0.469 -0.188,-0.075 -0.398,0.017 -0.471,0.2 -0.262,0.655 -0.544,1.3 -0.838,1.91 -0.087,0.179 -0.01,0.396 0.168,0.483 z"
       id="path983"
       inkscape:connector-curvature="0" /><path
       d="m 48.625,62.395 c -0.397,0.59 -0.817,1.146 -1.249,1.65 -0.129,0.151 -0.111,0.379 0.04,0.509 0.069,0.058 0.151,0.086 0.235,0.086 0.102,0 0.203,-0.044 0.275,-0.127 0.447,-0.526 0.883,-1.104 1.297,-1.716 0.111,-0.164 0.067,-0.388 -0.097,-0.499 -0.162,-0.11 -0.389,-0.069 -0.501,0.097 z"
       id="path985"
       inkscape:connector-curvature="0" /><path
       d="m 27.968,63.703 c -0.155,-0.126 -0.382,-0.104 -0.508,0.05 -0.125,0.154 -0.104,0.382 0.05,0.508 0.544,0.447 1.12,0.879 1.71,1.285 0.062,0.044 0.132,0.063 0.205,0.063 0.114,0 0.227,-0.055 0.297,-0.156 0.112,-0.164 0.071,-0.39 -0.093,-0.501 -0.573,-0.395 -1.132,-0.816 -1.661,-1.249 z"
       id="path987"
       inkscape:connector-curvature="0" /><path
       d="m 71.963,35.217 c -0.23,-0.09 -0.47,-0.177 -0.717,-0.26 -0.451,-0.15 -0.917,-0.261 -1.39,-0.33 -0.196,-0.033 -0.381,0.107 -0.409,0.305 -0.029,0.198 0.106,0.381 0.305,0.409 0.431,0.062 0.856,0.164 1.265,0.3 0.235,0.079 0.462,0.161 0.681,0.248 0.046,0.017 0.09,0.025 0.134,0.025 0.143,0 0.28,-0.086 0.337,-0.228 0.071,-0.186 -0.021,-0.395 -0.206,-0.469 z"
       id="path989"
       inkscape:connector-curvature="0" /><path
       d="m 76.095,39.004 c 0.071,0.086 0.175,0.13 0.279,0.13 0.08,0 0.162,-0.027 0.229,-0.082 0.153,-0.126 0.176,-0.354 0.051,-0.508 -0.457,-0.556 -0.98,-1.072 -1.555,-1.532 -0.154,-0.124 -0.381,-0.1 -0.507,0.056 -0.124,0.155 -0.099,0.382 0.057,0.507 0.534,0.43 1.019,0.91 1.446,1.429 z"
       id="path991"
       inkscape:connector-curvature="0" /><path
       d="m 59.564,39.496 c 0.07,0.069 0.159,0.103 0.252,0.103 0.092,0 0.187,-0.036 0.256,-0.108 0.492,-0.502 1.007,-0.97 1.529,-1.393 0.155,-0.125 0.181,-0.353 0.055,-0.508 -0.124,-0.155 -0.352,-0.178 -0.508,-0.053 -0.544,0.44 -1.08,0.927 -1.59,1.448 -0.139,0.143 -0.136,0.371 0.006,0.511 z"
       id="path993"
       inkscape:connector-curvature="0" /><path
       d="m 54.011,49.189 c 0.039,0.013 0.077,0.02 0.115,0.02 0.15,0 0.293,-0.095 0.342,-0.246 0.224,-0.664 0.473,-1.321 0.735,-1.95 0.078,-0.184 -0.008,-0.396 -0.191,-0.472 -0.187,-0.078 -0.396,0.009 -0.473,0.193 -0.272,0.646 -0.526,1.319 -0.755,1.999 -0.063,0.188 0.038,0.393 0.227,0.456 z"
       id="path995"
       inkscape:connector-curvature="0" /><path
       d="m 57.78,41.65 c -0.165,-0.115 -0.388,-0.077 -0.505,0.087 -0.401,0.572 -0.789,1.179 -1.152,1.805 -0.1,0.172 -0.042,0.393 0.131,0.493 0.057,0.033 0.119,0.05 0.181,0.05 0.124,0 0.247,-0.064 0.313,-0.179 0.352,-0.607 0.729,-1.198 1.119,-1.753 0.114,-0.163 0.076,-0.388 -0.087,-0.503 z"
       id="path997"
       inkscape:connector-curvature="0" /><path
       d="m 32.28,67.37 c 0.665,0.334 1.328,0.622 1.974,0.857 0.039,0.014 0.082,0.021 0.124,0.021 0.147,0 0.286,-0.091 0.338,-0.237 0.069,-0.188 -0.028,-0.394 -0.215,-0.463 -0.619,-0.227 -1.257,-0.503 -1.896,-0.823 -0.178,-0.09 -0.396,-0.02 -0.486,0.161 -0.088,0.178 -0.016,0.396 0.161,0.484 z"
       id="path999"
       inkscape:connector-curvature="0" /><path
       d="m 13.806,49.432 c -0.354,-0.072 -0.722,-0.13 -1.096,-0.171 -0.163,-0.022 -0.306,0.097 -0.325,0.258 -0.019,0.161 0.096,0.307 0.258,0.325 0.357,0.041 0.709,0.096 1.047,0.165 0.019,0.003 0.039,0.005 0.057,0.005 0.137,0 0.261,-0.096 0.288,-0.235 0.033,-0.161 -0.07,-0.315 -0.229,-0.347 z"
       id="path1001"
       inkscape:connector-curvature="0" /><path
       d="m 40.72,58.353 c -0.099,0.128 -0.075,0.313 0.054,0.411 0.052,0.041 0.115,0.062 0.177,0.062 0.088,0 0.175,-0.039 0.234,-0.115 l 1.776,-2.312 1.845,1.421 c 0.129,0.099 0.313,0.075 0.413,-0.053 0.098,-0.131 0.074,-0.314 -0.054,-0.414 l -2.312,-1.778 z"
       id="path1003"
       inkscape:connector-curvature="0" /><path
       d="m 44.807,60.294 c 0.129,0.099 0.313,0.076 0.413,-0.055 0.098,-0.129 0.074,-0.312 -0.054,-0.411 L 42.854,58.051 40.72,60.83 c -0.099,0.127 -0.075,0.312 0.054,0.411 0.052,0.042 0.115,0.06 0.177,0.06 0.088,0 0.175,-0.04 0.234,-0.114 l 1.776,-2.312 z"
       id="path1005"
       inkscape:connector-curvature="0" /><path
       d="m 59.218,49.44 -1.923,2.503 c -0.1,0.129 -0.076,0.314 0.053,0.412 0.054,0.042 0.116,0.061 0.179,0.061 0.088,0 0.176,-0.038 0.233,-0.113 l 1.566,-2.039 1.621,1.25 c 0.129,0.098 0.313,0.074 0.412,-0.055 0.1,-0.129 0.074,-0.312 -0.053,-0.412 z"
       id="path1007"
       inkscape:connector-curvature="0" /><path
       d="m 59.218,51.65 -1.923,2.504 c -0.1,0.127 -0.076,0.312 0.053,0.411 0.054,0.042 0.116,0.061 0.179,0.061 0.088,0 0.176,-0.039 0.233,-0.115 l 1.566,-2.037 1.621,1.248 c 0.129,0.099 0.313,0.076 0.412,-0.054 0.1,-0.128 0.074,-0.313 -0.053,-0.412 z"
       id="path1009"
       inkscape:connector-curvature="0" /><path
       d="m 40.88,37.925 c 0.088,0 0.176,-0.04 0.233,-0.115 l 1.613,-2.099 1.67,1.286 c 0.127,0.099 0.312,0.076 0.411,-0.054 0.1,-0.128 0.075,-0.312 -0.053,-0.412 l -2.136,-1.645 -1.972,2.565 c -0.099,0.129 -0.075,0.312 0.053,0.413 0.056,0.041 0.118,0.061 0.181,0.061 z"
       id="path1011"
       inkscape:connector-curvature="0" /><path
       d="m 40.88,40.193 c 0.088,0 0.176,-0.039 0.233,-0.114 l 1.613,-2.099 1.67,1.287 c 0.127,0.1 0.312,0.075 0.411,-0.054 0.1,-0.129 0.075,-0.313 -0.053,-0.412 l -2.136,-1.645 -1.972,2.565 c -0.099,0.128 -0.075,0.313 0.053,0.412 0.056,0.041 0.118,0.06 0.181,0.06 z"
       id="path1013"
       inkscape:connector-curvature="0" /><path
       d="m 56.035,30.107 c 0.089,0 0.176,-0.04 0.232,-0.115 l 1.613,-2.099 1.672,1.287 c 0.128,0.099 0.312,0.075 0.412,-0.054 0.098,-0.129 0.074,-0.313 -0.056,-0.412 l -2.136,-1.645 -1.971,2.564 c -0.099,0.129 -0.074,0.312 0.054,0.412 0.055,0.041 0.118,0.062 0.18,0.062 z"
       id="path1015"
       inkscape:connector-curvature="0" /><path
       d="m 56.035,32.376 c 0.089,0 0.176,-0.04 0.232,-0.115 l 1.613,-2.099 1.672,1.285 c 0.128,0.099 0.312,0.077 0.412,-0.054 0.098,-0.128 0.074,-0.312 -0.056,-0.412 l -2.136,-1.644 -1.971,2.565 c -0.099,0.128 -0.074,0.313 0.054,0.412 0.055,0.041 0.118,0.062 0.18,0.062 z"
       id="path1017"
       inkscape:connector-curvature="0" /><path
       d="m 45.812,47.667 c 0.088,0 0.175,-0.04 0.234,-0.115 l 1.612,-2.099 1.672,1.287 c 0.129,0.099 0.312,0.074 0.412,-0.054 0.099,-0.128 0.075,-0.313 -0.054,-0.412 L 47.55,44.63 45.579,47.194 c -0.098,0.129 -0.074,0.313 0.054,0.412 0.053,0.042 0.116,0.061 0.179,0.061 z"
       id="path1019"
       inkscape:connector-curvature="0" /><path
       d="m 45.812,49.936 c 0.088,0 0.175,-0.04 0.234,-0.115 l 1.612,-2.099 1.672,1.287 c 0.129,0.099 0.312,0.075 0.412,-0.054 0.099,-0.129 0.075,-0.312 -0.054,-0.412 l -2.138,-1.645 -1.971,2.565 c -0.098,0.128 -0.074,0.313 0.054,0.412 0.053,0.042 0.116,0.061 0.179,0.061 z"
       id="path1021"
       inkscape:connector-curvature="0" /><path
       d="m 12.719,43.102 c -0.125,0.104 -0.141,0.29 -0.037,0.413 0.104,0.125 0.291,0.142 0.414,0.037 l 1.597,-1.34 1.752,2.157 c 0.058,0.072 0.144,0.108 0.229,0.108 0.064,0 0.131,-0.021 0.185,-0.065 0.125,-0.103 0.145,-0.288 0.043,-0.414 l -2.128,-2.621 z"
       id="path1023"
       inkscape:connector-curvature="0" /><path
       d="m 16.902,46.31 -2.129,-2.622 -2.055,1.728 c -0.124,0.104 -0.14,0.289 -0.036,0.414 0.104,0.123 0.29,0.139 0.415,0.036 l 1.597,-1.343 1.751,2.158 c 0.059,0.07 0.144,0.108 0.229,0.108 0.064,0 0.131,-0.021 0.185,-0.066 0.126,-0.103 0.145,-0.287 0.043,-0.413 z"
       id="path1025"
       inkscape:connector-curvature="0" /><path
       d="m 27.078,55.935 c 0.105,0.125 0.291,0.142 0.415,0.037 l 1.634,-1.372 1.791,2.205 c 0.058,0.071 0.142,0.108 0.229,0.108 0.064,0 0.13,-0.022 0.185,-0.066 0.126,-0.102 0.145,-0.287 0.042,-0.414 l -2.166,-2.667 -2.091,1.756 c -0.127,0.103 -0.144,0.288 -0.039,0.413 z"
       id="path1027"
       inkscape:connector-curvature="0" /><path
       d="m 29.206,56.123 -2.092,1.758 c -0.124,0.104 -0.141,0.289 -0.036,0.413 0.105,0.124 0.29,0.141 0.415,0.036 l 1.634,-1.373 1.791,2.204 c 0.058,0.073 0.142,0.108 0.229,0.108 0.064,0 0.13,-0.021 0.185,-0.064 0.126,-0.103 0.145,-0.288 0.042,-0.413 z"
       id="path1029"
       inkscape:connector-curvature="0" /><path
       d="m 25.032,37.658 1.453,-1.221 1.598,1.97 c 0.059,0.071 0.145,0.108 0.229,0.108 0.064,0 0.13,-0.021 0.185,-0.066 0.125,-0.102 0.145,-0.287 0.043,-0.413 l -1.976,-2.434 -1.909,1.604 c -0.125,0.105 -0.14,0.29 -0.037,0.415 0.105,0.126 0.29,0.141 0.414,0.037 z"
       id="path1031"
       inkscape:connector-curvature="0" /><path
       d="m 25.032,39.788 1.453,-1.221 1.598,1.97 c 0.059,0.071 0.145,0.108 0.229,0.108 0.064,0 0.13,-0.021 0.185,-0.066 0.125,-0.102 0.145,-0.287 0.043,-0.413 l -1.976,-2.433 -1.909,1.605 c -0.125,0.104 -0.14,0.289 -0.037,0.414 0.105,0.124 0.29,0.14 0.414,0.036 z"
       id="path1033"
       inkscape:connector-curvature="0" /><path
       d="m 69.619,42.234 -1.879,1.577 c -0.125,0.104 -0.14,0.29 -0.035,0.414 0.103,0.125 0.288,0.14 0.412,0.036 l 1.422,-1.192 1.564,1.927 c 0.059,0.071 0.144,0.107 0.229,0.107 0.066,0 0.131,-0.021 0.187,-0.065 0.123,-0.103 0.145,-0.288 0.042,-0.414 z"
       id="path1035"
       inkscape:connector-curvature="0" /><path
       d="m 69.619,44.323 -1.879,1.579 c -0.125,0.104 -0.14,0.29 -0.035,0.414 0.103,0.124 0.288,0.141 0.412,0.036 l 1.422,-1.194 1.564,1.927 c 0.059,0.071 0.144,0.107 0.229,0.107 0.066,0 0.131,-0.021 0.187,-0.065 0.123,-0.102 0.145,-0.287 0.042,-0.413 z"
       id="path1037"
       inkscape:connector-curvature="0" /><path
       d="m 84.34,56.968 -1.878,1.578 c -0.124,0.104 -0.14,0.292 -0.036,0.415 0.104,0.123 0.29,0.14 0.414,0.034 l 1.422,-1.192 1.564,1.926 c 0.058,0.073 0.143,0.108 0.228,0.108 0.066,0 0.131,-0.021 0.187,-0.065 0.125,-0.102 0.144,-0.286 0.042,-0.413 z"
       id="path1039"
       inkscape:connector-curvature="0" /><path
       d="m 84.34,59.059 -1.878,1.577 c -0.124,0.105 -0.14,0.288 -0.036,0.414 0.104,0.125 0.291,0.14 0.414,0.036 l 1.422,-1.194 1.564,1.927 c 0.058,0.071 0.143,0.108 0.228,0.108 0.066,0 0.131,-0.021 0.187,-0.065 0.125,-0.104 0.144,-0.288 0.042,-0.413 z"
       id="path1041"
       inkscape:connector-curvature="0" /><path
       d="m 81.228,35.394 1.771,-1.487 1.938,2.385 c 0.058,0.071 0.142,0.108 0.228,0.108 0.064,0 0.13,-0.021 0.185,-0.065 0.126,-0.103 0.146,-0.287 0.043,-0.414 l -2.313,-2.848 -2.227,1.871 c -0.124,0.104 -0.141,0.29 -0.037,0.414 0.103,0.123 0.288,0.139 0.412,0.036 z"
       id="path1043"
       inkscape:connector-curvature="0" /><path
       d="m 81.228,37.926 1.771,-1.489 1.937,2.386 c 0.059,0.071 0.143,0.108 0.229,0.108 0.064,0 0.13,-0.021 0.185,-0.066 0.126,-0.102 0.146,-0.286 0.043,-0.414 l -2.313,-2.848 -2.227,1.873 c -0.124,0.104 -0.141,0.29 -0.037,0.415 0.103,0.123 0.288,0.139 0.412,0.035 z"
       id="path1045"
       inkscape:connector-curvature="0" /><path
       d="m 13.836,28.626 c -0.163,0 -0.294,0.131 -0.294,0.293 v 1.183 l -1.698,-2.089 v 3.738 c 0,0.162 0.132,0.293 0.294,0.293 0.164,0 0.294,-0.132 0.294,-0.293 v -2.083 l 1.037,1.277 c 0.021,0.025 0.046,0.043 0.073,0.06 v 1.398 c 0,0.162 0.131,0.293 0.294,0.293 0.163,0 0.293,-0.131 0.293,-0.293 V 28.92 c 0,-0.163 -0.13,-0.294 -0.293,-0.294 z"
       id="path1047"
       inkscape:connector-curvature="0" /><path
       d="m 13.009,24.608 -1.335,1.62 2.668,0.617 z m -0.078,1.017 0.2,0.336 -0.4,-0.092 z"
       id="path1049"
       inkscape:connector-curvature="0" /></g></svg>