<svg height='100px' width='100px'  fill="#ffffff" xmlns:dc="http://purl.org/dc/elements/1.1/" xmlns:cc="http://creativecommons.org/ns#" xmlns:rdf="http://www.w3.org/1999/02/22-rdf-syntax-ns#" xmlns:svg="http://www.w3.org/2000/svg" xmlns="http://www.w3.org/2000/svg" xmlns:sodipodi="http://sodipodi.sourceforge.net/DTD/sodipodi-0.dtd" xmlns:inkscape="http://www.inkscape.org/namespaces/inkscape" viewBox="0 0 8.4666667 8.4666669" version="1.1" x="0px" y="0px"><svg:g><svg:path style="color:#000000;font-style:normal;font-variant:normal;font-weight:normal;font-stretch:normal;font-size:medium;line-height:normal;font-family:sans-serif;font-variant-ligatures:normal;font-variant-position:normal;font-variant-caps:normal;font-variant-numeric:normal;font-variant-alternates:normal;font-feature-settings:normal;text-indent:0;text-align:start;text-decoration:none;text-decoration-line:none;text-decoration-style:solid;text-decoration-color:#000000;letter-spacing:normal;word-spacing:normal;text-transform:none;writing-mode:lr-tb;direction:ltr;text-orientation:mixed;dominant-baseline:auto;baseline-shift:baseline;text-anchor:start;white-space:normal;shape-padding:0;clip-rule:nonzero;display:inline;overflow:visible;visibility:visible;opacity:1;isolation:auto;mix-blend-mode:normal;color-interpolation:sRGB;color-interpolation-filters:linearRGB;solid-color:#000000;solid-opacity:1;vector-effect:none;fill:#ffffff;fill-opacity:1;fill-rule:nonzero;stroke:none;stroke-width:0.5291667;stroke-linecap:round;stroke-linejoin:round;stroke-miterlimit:4;stroke-dasharray:none;stroke-dashoffset:0;stroke-opacity:1;color-rendering:auto;image-rendering:auto;shape-rendering:auto;text-rendering:auto;enable-background:accumulate" d="m 4.2329661,-5.9220004e-5 c -0.8840599,0 -1.6035197,0.719461000004 -1.6035197,1.603520020004 v 2.406055 c 0,0.88406 0.7194606,1.605586 1.6035197,1.605586 0.8840592,0 1.6055859,-0.721526 1.6055859,-1.605586 V 1.6034608 C 5.838552,0.71940178 5.1170253,-5.9220004e-5 4.2329661,-5.9220004e-5 Z M 3.8386748,1.5311138 a 0.26460984,0.26460984 0 0 1 0.027389,0 h 0.7363891 a 0.26464799,0.26464799 0 1 1 0,0.529166 H 3.8660634 a 0.26500092,0.26500092 0 0 1 -0.027389,-0.529166 z m 0,1.011824 a 0.26460984,0.26460984 0 0 1 0.027389,0 h 0.7363891 a 0.2646485,0.2646485 0 1 1 0,0.529167 H 3.8660634 a 0.26500142,0.26500142 0 0 1 -0.027389,-0.529167 z m 0,1.011825 a 0.26460984,0.26460984 0 0 1 0.027389,0 h 0.7363891 a 0.2646485,0.2646485 0 1 1 0,0.529167 H 3.8660634 a 0.26500142,0.26500142 0 0 1 -0.027389,-0.529167 z m 2.6458335,0.362252 a 0.26460984,0.26460984 0 0 0 -0.2573496,0.24908 c -0.08137,1.020387 -0.9539181,1.845365 -1.9941926,1.845365 -1.040275,0 -1.9108875,-0.824736 -1.9921265,-1.845365 A 0.26460984,0.26460984 0 0 0 1.9519684,3.9201148 0.26460984,0.26460984 0 0 0 1.711673,4.2089868 c 0.09616,1.208078 1.0591069,2.190497 2.2577433,2.317688 v 1.410766 H 3.0537098 a 0.26460984,0.26460984 0 0 0 -0.027388,0 0.26500092,0.26500092 0 0 0 0.027388,0.529167 h 2.3610961 a 0.26464799,0.26464799 0 1 0 0,-0.529167 H 4.4990996 V 6.5261578 C 5.6967062,6.3980398 6.6584798,5.4165628 6.7547749,4.2089868 A 0.26460984,0.26460984 0 0 0 6.4845083,3.9170148 Z"></svg:path></svg:g></svg>