<svg height='100px' width='100px'  fill="#ffffff" xmlns="http://www.w3.org/2000/svg" xmlns:xlink="http://www.w3.org/1999/xlink" version="1.1" x="0px" y="0px" viewBox="0 0 512 512" enable-background="new 0 0 512 512" xml:space="preserve"><g><path d="M442.217,132.188H324.536c-1.784-14.628-9.258-26.96-21.88-35.956c-2.126-1.516-4.383-2.905-6.738-4.183l48.708-38.052   c3.047-2.38,3.587-6.779,1.207-9.826c-2.381-3.047-6.78-3.587-9.826-1.207l-55.04,42.999c-7.811-2.26-16.253-3.45-24.967-3.45   s-17.156,1.189-24.966,3.45l-96.625-75.479c-3.045-2.379-7.445-1.838-9.826,1.208c-2.38,3.046-1.839,7.446,1.208,9.826   l90.291,70.531c-2.355,1.278-4.611,2.667-6.738,4.183c-12.62,8.994-20.082,21.33-21.868,35.956H69.785   c-11.659,0-22.644,4.565-30.931,12.854c-8.288,8.29-12.853,19.279-12.852,30.943V433.59c0,24.15,19.641,43.798,43.783,43.798h12.98   v18.607c0,3.866,3.134,7,7,7h332.469c3.866,0,7-3.134,7-7v-18.607h12.982c24.141,0,43.781-19.647,43.781-43.798V175.986   C485.998,151.835,466.357,132.188,442.217,132.188z M256,96.514c24.262,0,50.22,11.222,54.379,35.674H201.621   C205.781,107.736,231.739,96.514,256,96.514z M415.234,488.995H96.765v-11.607h318.469V488.995z M471.998,433.59   c0,16.431-13.359,29.798-29.781,29.798h-19.982H89.765h-19.98c-16.422,0-29.783-13.367-29.783-29.798V175.984   c0-7.925,3.108-15.399,8.752-21.044c5.643-5.644,13.112-8.752,21.031-8.752h124.26h123.91h0.02h124.242   c16.422,0,29.781,13.367,29.781,29.798V433.59z"></path><path d="M329.039,179.396H107.972c-18.354,0-33.285,14.934-33.285,33.291v184.204c0,18.367,14.932,33.31,33.285,33.31h221.067   c18.343,0,33.266-14.942,33.266-33.31V212.686C362.305,194.33,347.382,179.396,329.039,179.396z M348.305,396.891   c0,10.647-8.643,19.31-19.266,19.31H107.972c-10.634,0-19.285-8.662-19.285-19.31V212.687c0-10.637,8.651-19.291,19.285-19.291   h221.067c10.623,0,19.266,8.653,19.266,19.29V396.891z"></path><path d="M409.941,197.795c-15.104,0-27.393,12.288-27.394,27.392c0,15.115,12.289,27.411,27.394,27.411   c15.093,0,27.371-12.296,27.371-27.411C437.313,210.083,425.034,197.795,409.941,197.795z M409.941,238.598   c-7.385,0-13.394-6.016-13.394-13.411c0.001-7.385,6.009-13.393,13.394-13.393c7.373,0,13.371,6.008,13.371,13.392   C423.313,232.582,417.314,238.598,409.941,238.598z"></path><path d="M409.941,277.406c-15.104,0-27.393,12.287-27.394,27.391c0,15.104,12.289,27.393,27.394,27.393   c15.093,0,27.371-12.288,27.371-27.393C437.313,289.693,425.034,277.406,409.941,277.406z M409.941,318.189   c-7.385,0-13.394-6.008-13.394-13.392c0.001-7.385,6.009-13.392,13.394-13.392c7.373,0,13.371,6.007,13.371,13.391   C423.313,312.182,417.314,318.189,409.941,318.189z"></path><path d="M409.941,356.998c-15.104,0-27.393,12.297-27.394,27.412c0,15.104,12.289,27.391,27.394,27.391   c15.093,0,27.371-12.287,27.371-27.391C437.313,369.295,425.034,356.998,409.941,356.998z M409.941,397.801   c-7.385,0-13.394-6.007-13.394-13.39c0.001-7.396,6.009-13.413,13.394-13.413c7.373,0,13.371,6.017,13.371,13.412   C423.313,391.794,417.314,397.801,409.941,397.801z"></path><path d="M239.514,245.846l-55.535,55.606c-2.732,2.735-2.729,7.167,0.006,9.899c1.367,1.365,3.157,2.047,4.947,2.047   c1.793,0,3.586-0.685,4.953-2.054l55.535-55.605c2.732-2.735,2.729-7.168-0.006-9.9   C246.678,243.108,242.246,243.111,239.514,245.846z"></path><path d="M236.939,297.233l-55.555,55.629c-2.732,2.735-2.729,7.167,0.007,9.899c1.366,1.364,3.156,2.047,4.946,2.047   c1.793,0,3.586-0.685,4.953-2.054l55.555-55.629c2.732-2.735,2.729-7.167-0.007-9.899   C244.104,294.496,239.671,294.497,236.939,297.233z"></path></g></svg>