<?xml version="1.0" encoding="UTF-8"?>
<svg width="1200pt" height="1200pt" version="1.1" viewBox="0 0 1200 1200" xmlns="http://www.w3.org/2000/svg">
 <path d="m581.25 150c-11.25 0-26.477 4.2383-33.977 11.738l-269.55 239.06c-7.5 7.5-22.727 11.738-33.977 11.738h-150c-11.25 0-18.75 7.5-18.75 18.75v337.5c0 11.25 7.5 18.75 18.75 18.75h150c11.25 0 26.477 4.2383 33.977 11.738l269.55 235.54c7.5 7.5 22.727 11.738 33.977 11.738s18.75-7.5 18.75-18.75v-862.5c0-7.5-7.5-15.227-18.75-15.227zm214.46 254.29-53.926 53.926 123.04 123.04-123.04 123.04 53.926 53.926 123.04-123.04 123.04 123.04 53.926-53.926-123.04-123.04 123.04-123.04-53.926-53.926-123.04 123.04z" fill="#fff"/>
</svg>
