<?xml version="1.0" encoding="UTF-8"?>
<svg width="1200pt" height="1200pt" version="1.1" viewBox="0 0 1200 1200" xmlns="http://www.w3.org/2000/svg">
 <path d="m1000.8 124.2-51.602 51.602c105.45 105.45 175.8 262.57 175.8 424.2s-70.352 318.82-175.8 424.2l51.602 51.602c119.55-119.55 199.2-292.43 199.2-475.8s-79.648-356.18-199.2-475.8zm-550.8 25.801-225 225h-225v450h225l225 225h75v-900zm393.75 131.25-53.926 53.926c67.949 67.949 110.18 162.38 110.18 264.82 0 102.52-42.227 196.95-110.18 264.82l53.926 53.926c82.051-82.051 131.25-196.27 131.25-318.75s-49.199-236.7-131.25-318.75zm-154.73 159.38-58.574 46.875c26.551 33.227 44.551 70.727 44.551 112.5s-17.926 79.273-44.551 112.5l58.574 46.875c33.449-41.773 60.977-96.148 60.977-159.38s-27.523-117.6-60.977-159.38z" fill="#fff"/>
</svg>
