<svg height='100px' width='100px'  fill="#ffffff" xmlns="http://www.w3.org/2000/svg" xmlns:xlink="http://www.w3.org/1999/xlink" version="1.1" x="0px" y="0px" viewBox="0 0 90 90" enable-background="new 0 0 90 90" xml:space="preserve"><path fill="#ffffff" d="M50.8,34.9c0.5,0,0.9-0.3,1.1-0.7l0,0l0,0c0,0,0,0,0,0l1.7-4.8l3.5,4.7c0,0,0,0,0,0l0,0l0,0  c0.1,0.2,0.3,0.3,0.5,0.3c0.4,0,0.6-0.3,0.6-0.6c0-0.2-0.1-0.3-0.2-0.5l0,0l-4.1-5.9l0,0c-0.1-0.2-0.4-0.3-0.6-0.3  c-0.3,0-0.5,0.1-0.6,0.3l0,0L49.8,33l0,0c-0.1,0.2-0.2,0.4-0.2,0.6C49.6,34.4,50.1,34.9,50.8,34.9z"></path><path fill="#ffffff" d="M37.2,32.5c0.2,0,0.4-0.1,0.5-0.2l0,0l0,0c0,0,0,0,0.1-0.1l3.9-3.9l3.1,7.5c0,0,0,0,0,0l0,0l0,0  c0.2,0.4,0.6,0.7,1.1,0.7c0.7,0,1.2-0.6,1.2-1.2c0-0.2-0.1-0.4-0.2-0.6l0,0l-4.4-8.1l0,0c-0.1-0.2-0.4-0.4-0.6-0.4  c-0.2,0-0.5,0.1-0.6,0.3l0,0l-4.6,4.6l0,0c-0.1,0.1-0.2,0.3-0.2,0.5C36.4,32.1,36.8,32.5,37.2,32.5z"></path><path fill="#ffffff" d="M73.4,54.3L73.4,54.3l-4.8-2.1c0,0,0,0,0,0l-9.7-9.4c0.7-0.8,1.1-1.9,1.1-3.1c0,0,0-0.1,0-0.1  c1,1.2,2.5,2,4.1,2c0.4,0,0.7,0,1.1-0.1l4.8-1.1l0,0c0.9-0.1,1.7-1,1.7-2c0-0.5-0.2-0.9-0.4-1.2l0,0l-2.8-4l0,0  c-1-1.4-2.5-2.3-4.4-2.3c-2.9,0-5.3,2.4-5.3,5.3c0,0.1,0,0.2,0,0.3c-0.9-1-2.2-1.7-3.7-1.7c-0.4,0-0.8,0-1.1,0.1l0,0l0,0  c-0.2,0.1-0.4,0.1-0.6,0.2l-5,1.6c0,0,0,0,0,0l0,0l0,0c-2,0.6-3.4,2.5-3.4,4.6c0,0.4,0.1,0.9,0.2,1.3c-0.3-0.5-0.8-0.8-1.4-0.8  c-0.6,0-1.2,0.3-1.5,0.8c-2.5-4.1-7.8-3.8-12.7-0.8c-4.9,3-10,10.7-7.8,14.4c2.1,3.5,10.5,1.1,15.4-1.8c4-2.4,6.6-5.6,6.1-9.1  c0.2,0,0.3,0.1,0.5,0.1c1,0,1.8-0.8,1.8-1.8c0-0.1,0-0.1,0-0.2c0.2,0.5,0.5,0.9,0.9,1.3l-5.8,18.2c0,0.1-0.1,0.2-0.1,0.3  c0,0.3,0.1,0.5,0.3,0.6v0l3.9,2.5l0,0c0.1,0.1,0.2,0.1,0.3,0.1c0.3,0,0.5-0.2,0.5-0.5c0-0.2-0.1-0.3-0.2-0.4l0,0L42,63.1l5.5-17.3  c0.7,0.3,1.4,0.5,2.2,0.5c0.4,0,0.8-0.1,1.2-0.2l0,0l0,0c0.2,0,0.4-0.1,0.5-0.2l0.8-0.2l4.1,12.4l0,0c0.1,0.2,0.2,0.3,0.3,0.4  l4.4,2.5l0,0c0.1,0,0.1,0,0.2,0c0.3,0,0.5-0.2,0.5-0.5c0-0.2-0.1-0.4-0.3-0.5l0,0l-3.8-2.7l-4-12.2l2.3-0.8c0.4-0.1,0.7-0.2,1-0.3  l0,0l0,0c0.2-0.1,0.4-0.2,0.6-0.3l9.9,9.5c0,0,0,0,0.1,0.1l0,0l0,0c0.1,0.1,0.2,0.2,0.4,0.2l5,1.6c0,0,0,0,0,0l0,0l0,0  c0,0,0.1,0,0.2,0c0.3,0,0.5-0.2,0.5-0.5C73.8,54.6,73.6,54.4,73.4,54.3z"></path><path fill="#ffffff" d="M87.1,29.4l-16.8,2.3c-0.4,0-0.7,0.3-0.7,0.7c0,0.4,0.3,0.7,0.7,0.7c0.1,0,0.1,0,0.2,0l16.6-2.5  c0.3,0,0.5-0.2,0.5-0.5S87.4,29.4,87.1,29.4z"></path><path fill="#ffffff" d="M35,35l7.1,4.9c0,0,0,0,0,0l0,0l0,0c0.2,0.1,0.4,0.2,0.7,0.2c0.7,0,1.2-0.6,1.2-1.2c0-0.5-0.3-0.9-0.7-1.1  l0,0l-8.1-4.3c-0.1-0.1-0.2-0.1-0.4-0.1c-0.2,0-0.4,0.1-0.6,0.3l0,0L8.8,56.7l-4.4,0.7c-0.3,0-0.5,0.2-0.5,0.5  c0,0.3,0.2,0.5,0.5,0.5l4.7-0.3c0.2,0,0.4-0.1,0.5-0.2L35,35z"></path><path fill="#ffffff" d="M67.9,29.7c-0.1,0-0.1,0.1-0.2,0.2l0,0l0,0c-0.1,0.1-0.2,0.3-0.2,0.4c0,0.4,0.3,0.7,0.7,0.7  c0.2,0,0.4-0.1,0.5-0.2l7.6-6.4c0,0,0.1,0,0.1-0.1l0,0l0,0c0.1-0.1,0.1-0.2,0.1-0.3c0-0.3-0.2-0.5-0.5-0.5c-0.2,0-0.3,0.1-0.4,0.2  l0,0L67.9,29.7z"></path></svg>