<?xml version="1.0" encoding="UTF-8"?>
<svg width="1200pt" height="1200pt" version="1.1" viewBox="0 0 1200 1200" xmlns="http://www.w3.org/2000/svg">
 <g fill="#fff">
  <path d="m572.4 490.8 9.6016-34.801c-49.199-13.199-104.4-7.1992-148.8 18l18 31.199c36-19.199 80.402-25.199 121.2-14.398z"/>
  <path d="m776.4 476.4 14.398-33.602c-46.801-19.199-103.2-13.199-144 16.801l21.602 28.801c30-21.598 72-26.398 108-12z"/>
  <path d="m615.6 661.2c-6-10.801-18-15.602-28.801-12-7.1992 2.3984-14.398 2.3984-21.602 1.1992-3.6016-1.1992-6-2.3984-7.1992-3.6016-1.1992-1.1992-1.1992-4.8008 0-8.3984 1.1992-4.8008 6-9.6016 9.6016-13.199 4.8008-4.8008 3.6016-13.199-1.1992-16.801-4.8008-3.6016-13.199-3.6016-16.801 1.1992-4.8008 6-10.801 12-13.199 20.398-4.8008 10.801-3.6016 22.801 2.3984 31.199 4.8008 6 12 10.801 21.602 13.199 10.801 2.3984 22.801 2.3984 33.602-1.1992 0 0 1.1992 0 1.1992 1.1992 7.1992 12 19.199 20.398 33.602 21.602h3.6016c14.398 0 30-7.1992 38.398-20.398 6 0 10.801-1.1992 15.602-3.6016 9.6016-3.6016 16.801-10.801 21.602-20.398 4.8008-9.6016 3.6016-22.801-2.3984-32.398-3.6016-6-10.801-7.1992-16.801-4.8008-6 3.6016-7.1992 10.801-4.8008 16.801 1.1992 3.6016 2.3984 7.1992 1.1992 10.801-1.1992 2.3984-3.6016 6-7.1992 7.1992-2.3984 1.1992-4.8008 1.1992-7.1992 1.1992-7.1992 0-15.602 3.6016-20.398 10.801-4.8008 6-13.199 10.801-20.398 9.6016-6.0117-1.1992-12.012-4.8008-14.41-9.6016z"/>
  <path d="m588 591.6h2.3984c2.3984 0 4.8008-1.1992 6-3.6016 1.1992-2.3984 27.602-69.602 22.801-106.8 0-3.6016-3.6016-6-7.1992-4.8008-3.6016 0-6 3.6016-4.8008 7.1992 3.6016 33.602-21.602 100.8-21.602 102-2.3984 2.4023 0.003906 4.8008 2.4023 6.0039z"/>
  <path d="m508.8 747.6c72-7.1992 144-10.801 217.2-10.801v-24c-73.199-1.1992-146.4 2.3984-219.6 10.801z"/>
  <path d="m552 532.8c0-21.602-18-38.398-38.398-38.398-21.602 0-38.398 18-38.398 38.398 0 21.602 18 38.398 38.398 38.398 21.598 0 38.398-16.801 38.398-38.398zm-38.398 14.398c-8.3984 0-14.398-7.1992-14.398-14.398s7.1992-14.398 14.398-14.398c7.1992 0 14.398 7.1992 14.398 14.398s-6 14.398-14.398 14.398z"/>
  <path d="m681.6 524.4c0 21.602 16.801 38.398 38.398 38.398 21.602 0 38.398-16.801 38.398-38.398 0-21.602-16.801-38.398-38.398-38.398-21.602 0-38.398 16.801-38.398 38.398zm51.598 0c0 7.1992-6 14.398-14.398 14.398-8.3984 0-14.398-6-14.398-14.398 0-8.3984 6-14.398 14.398-14.398 8.3984 0 14.398 6 14.398 14.398z"/>
  <path d="m772.8 517.2c-1.1992 2.3984 0 6 2.3984 8.3984 6 2.3984 13.199 4.8008 19.199 4.8008 4.8008 0 9.6016-1.1992 14.398-2.3984 3.6016-1.1992 4.8008-4.8008 3.6016-7.1992-1.1992-3.6016-4.8008-4.8008-7.1992-3.6016-8.3984 2.3984-18 2.3984-25.199-1.1992-2.3984-2.3984-6-1.1992-7.1992 1.1992z"/>
  <path d="m812.4 542.4c-9.6016 2.3984-20.398 1.1992-28.801-3.6016-2.3984-1.1992-6 0-8.3984 2.3984-1.1992 2.3984 0 6 2.3984 8.3984 7.1992 4.8008 16.801 7.1992 25.199 7.1992 3.6016 0 8.3984 0 12-1.1992s4.8008-3.6016 4.8008-7.1992c0.003906-4.793-3.5977-5.9961-7.1992-5.9961z"/>
  <path d="m428.4 537.6c4.8008 1.1992 9.6016 2.3984 14.398 2.3984 7.1992 0 13.199-1.1992 19.199-4.8008 2.3984-1.1992 4.8008-4.8008 2.3984-8.3984-1.1992-2.3984-4.8008-4.8008-8.3984-2.3984-8.3984 3.6016-16.801 4.8008-25.199 1.1992-3.6016-1.1992-6 0-7.1992 3.6016 0.003906 3.5977 1.2031 7.1953 4.8008 8.3984z"/>
  <path d="m463.2 550.8c-1.1992-2.3984-4.8008-3.6016-8.3984-2.3984-8.3984 4.8008-19.199 6-28.801 3.6016-3.6016-1.1992-6 1.1992-7.1992 4.8008-1.1992 3.5938 1.1992 7.1953 3.5977 7.1953 3.6016 1.1992 8.3984 1.1992 12 1.1992 8.3984 0 18-2.3984 25.199-7.1992 3.6016 0 4.8008-3.6016 3.6016-7.1992z"/>
  <path d="m766.8 684-34.801-26.398c-2.3984-2.3984-6-1.1992-8.3984 1.1992-2.3984 2.3984-1.1992 6 1.1992 8.3984l34.801 26.398c4.8008 3.6016 8.3984 6 12 10.801 2.3984 3.6016 4.8008 8.3984 3.6016 12 0 3.6016-2.3984 6-6 7.1992-3.6016 0-6 3.6016-4.8008 7.1992 0 3.6016 2.3984 4.8008 6 4.8008h1.1992c8.3984-1.1992 14.398-8.3984 15.602-16.801 1.1992-7.1992-1.1992-14.398-6-20.398-4.8047-7.1992-9.6016-10.797-14.402-14.398z"/>
  <path d="m494.4 657.6-34.797 26.398c-4.8008 3.6016-9.6016 7.1992-14.398 13.199-4.8008 6-7.1992 13.199-6 20.398 1.1992 8.3984 8.3984 15.602 15.602 16.801h1.1992c2.3984 0 6-2.3984 6-4.8008 0-3.6016-2.3984-6-4.8008-7.1992-2.3984 0-4.8008-3.6016-6-7.1992 0-3.6016 1.1992-8.3984 3.6016-12 3.6016-3.6016 7.1992-7.1992 12-10.801l34.801-26.398c2.3984-2.3984 3.6016-6 1.1992-8.3984-2.4062-1.2031-6.0039-2.4023-8.4062 0z"/>
  <path d="m696 814.8c-2.3984 2.3984-2.3984 6 0 8.3984 7.1992 6 9.6016 15.602 8.3984 25.199-2.3984 10.801-12 20.398-19.199 28.801-2.3984 2.3984-2.3984 6 0 8.3984 1.1992 1.1992 2.3984 1.1992 4.8008 1.1992 1.1992 0 3.6016 0 4.8008-1.1992 8.3984-8.3984 19.199-20.398 22.801-34.801 2.3984-13.199-2.3984-27.602-12-36-3.6016-3.5977-7.2031-2.3984-9.6016 0.003906z"/>
  <path d="m560.4 885.6c-3.6016 0-8.3984-1.1992-13.199-4.8008-14.398-9.6016-21.602-30-16.801-48 1.1992-3.6016-1.1992-6-3.6016-7.1992-3.6016-1.1992-6 1.1992-7.1992 3.6016-7.1992 21.602 2.3984 48 21.602 61.199 6 4.8008 13.199 6 19.199 7.1992 3.6016 0 6-2.3984 6-6 0-3.6016-3.5977-6-6-6z"/>
  <path d="m699.6 739.2c-49.199 32.398-111.6 38.398-165.6 15.602l-4.8008 10.801c22.801 9.6016 48 14.398 72 14.398 37.199 0 73.199-10.801 104.4-31.199z"/>
  <path d="m1048.8 982.8c-15.602-12-32.398-19.199-49.199-27.602-6-2.3984-10.801-4.8008-16.801-7.1992-56.398-27.602-103.2-74.398-130.8-132l-22.801 10.801c15.602-25.199 24-64.801 26.398-98.398 9.6016-2.3984 18-8.3984 24-19.199 6-9.6016 9.6016-20.398 13.199-30 14.398-45.602 25.199-92.398 31.199-139.2 1.1992-10.801 2.3984-22.801 0-33.602-4.8008-72-24-174-54-240-13.199-27.602-33.602-67.199-68.398-96-6-4.8008-12-10.801-18-15.602-106.8-92.398-300-109.2-400.8 3.6016-3.6016 3.6016-7.1992 7.1992-10.801 12-73.199 79.199-108 204-88.801 319.2-2.3984 4.8008-4.8008 8.3984-6 14.398-3.5938 12-2.3945 24-1.1953 36 6 46.801 16.801 93.602 31.199 139.2 3.6016 9.6016 7.1992 20.398 13.199 30 7.1992 10.801 15.602 16.801 26.398 19.199 6 52.801 30 106.8 66 150 34.801 39.602 80.398 69.602 132 86.398-7.1992 14.398-6 30 1.1992 43.199l18 31.199-25.199 104.4 34.801 8.3984 20.398-86.398c3.6016 1.1992 8.3984 1.1992 12 1.1992 2.3984 0 4.8008 0 8.3984-1.1992l19.199 86.398 34.801-8.3984-21.594-99.594 20.398-36c7.1992-12 8.3984-25.199 3.6016-38.398 4.8008-1.1992 9.6016-3.6016 14.398-4.8008 28.801-12 51.602-33.602 73.199-54 26.398-25.199 46.801-48 63.602-73.199 31.199 62.398 82.801 112.8 145.2 144 6 2.3984 12 4.8008 16.801 8.3984 15.602 7.1992 30 13.199 42 22.801 12 9.6016 24 26.398 21.602 43.199l34.801 7.1992c7.1992-34.801-13.203-63.598-33.602-80.398-15.602-12 20.398 16.801 0 0zm-650.4-787.2c3.6016-3.6016 7.1992-8.3984 10.801-12 22.801-25.199 38.398-43.199 90-55.199 85.199-21.602 126-8.3984 199.2 15.602 24 8.3984 40.801 22.801 61.199 39.602 6 4.8008 12 10.801 19.199 15.602 22.801 18 40.801 43.199 58.801 82.801 22.801 50.398 39.602 126 46.801 188.4-3.6016 0-7.1992 0-12 1.1992-4.8008-18-12-43.199-19.199-68.398-9.6016-31.199-18-63.602-22.801-79.199-6-25.199-13.199-50.398-25.199-74.398-4.8008-9.6016-9.6016-18-15.602-25.199-19.199-25.199-54-31.199-81.602-14.398-4.8008 2.3984-9.6016 4.8008-14.398 7.1992-14.398 4.8008-31.199 7.1992-46.801 8.3984-54 6-110.4 13.199-164.4 6h-3.6016c-15.602-2.3984-32.398-3.6016-49.199 2.3984-19.199 7.1992-33.602 25.199-45.602 52.801-18 43.199-24 90-28.801 134.4l-1.1992 7.1992c-2.3984 15.602-4.8008 34.801-6 52.801-10.801-8.3984-21.602-13.199-32.398-13.199-11.996-98.406 19.203-205.21 82.801-272.41 3.6016-4.8008-63.598 67.199 0 0zm238.8 783.6c1.1992 1.1992 2.3984 6 0 10.801l-20.398 36c-2.3984 4.8008-7.1992 4.8008-9.6016 4.8008-2.3984 0-6 0-9.6016-4.8008l-20.398-36c-2.3984-4.8008-1.1992-8.3984 0-10.801 1.1992-1.1992 3.6016-4.8008 9.6016-4.8008h1.1992c12 2.3984 24 2.3984 34.801 2.3984h12c1.1992 0.003906 1.1992 1.2031 2.3984 2.4023zm97.199-94.801c-19.199 19.199-38.398 37.199-62.398 46.801-25.199 10.801-57.602 12-93.602 4.8008-54-12-103.2-40.801-138-81.602-37.199-43.199-58.801-99.602-60-151.2 0-2.3984-1.1992-6-2.3984-8.3984-1.1992-3.6016-2.3984-7.1992-4.8008-9.6016-7.1992-7.1992-18-8.3984-25.199-1.1992-2.3984-4.8008-3.6016-10.801-6-15.602-14.398-43.199-24-87.602-30-133.2-1.1992-8.3984-2.3984-16.801 0-22.801 1.1992-4.8008 3.6016-7.1992 6-7.1992 1.1992 0 6 1.1992 10.801 4.8008 6 6 10.801 13.199 14.398 20.398 3.6016 9.6016 14.398 13.199 22.801 9.6016 1.1992-1.1992 3.6016-1.1992 4.8008-2.3984 7.1992-2.3984 13.199-8.3984 13.199-16.801 0-25.199 4.8008-61.199 8.3984-87.602l1.1992-7.1992c4.8008-42 10.801-86.398 26.398-126 7.1992-18 15.602-28.801 25.199-32.398 8.3984-3.6016 20.398-2.3984 32.398 0h3.6016c58.801 7.1992 116.4 0 172.8-6 16.801-2.3984 36-4.8008 55.199-10.801 7.1992-2.3984 14.398-6 20.398-9.6016 12-7.1992 26.398-4.8008 33.602 4.8008 4.8008 6 8.3984 13.199 12 20.398 9.6016 20.398 16.801 44.398 21.602 67.199 3.6016 15.602 13.199 48 22.801 80.398 9.6016 31.199 18 63.602 22.801 79.199-6 7.1992-12 16.801-15.602 25.199-3.6016 9.6016 1.1992 19.199 9.6016 22.801 9.6016 3.6016 19.199-1.1992 22.801-9.6016 3.6016-8.3984 8.3984-14.398 14.398-20.398 4.8008-3.6016 8.3984-6 10.801-4.8008 1.1992 0 4.8008 2.3984 6 7.1992 1.1992 6 1.1992 14.398 0 22.801-6 44.398-15.602 90-30 133.2-1.1992 6-3.6016 10.801-6 15.602-6-4.8008-14.398-6-20.398-2.3984-7.1992 2.3984-12 9.6016-10.801 16.801 1.1992 33.602-6 84-21.602 109.2-17.996 25.203-39.598 49.203-67.199 75.602z"/>
  <path d="m339.6 909.6c-6 1.1992-10.801 2.3984-16.801 4.8008-20.398 4.8008-42 10.801-62.398 19.199-32.398 13.199-55.199 33.602-68.398 58.801-16.801 32.398-13.199 70.801 8.3984 94.801l26.398-24c-12-13.199-13.199-36-3.6016-54 10.801-21.602 33.602-34.801 50.398-42 18-7.1992 36-12 56.398-16.801 6-1.1992 12-2.3984 16.801-4.8008 25.199-7.1992 54-15.602 79.199-33.602l-21.602-28.801c-17.996 12-43.195 20.402-64.793 26.402z"/>
 </g>
</svg>
