<svg height='100px' width='100px'  fill="#ffffff" xmlns="http://www.w3.org/2000/svg" xmlns:xlink="http://www.w3.org/1999/xlink" version="1.1" x="0px" y="0px" viewBox="0 0 100 100" enable-background="new 0 0 100 100" xml:space="preserve"><g><path fill="#ffffff" d="M46.6,65.1c-0.6,0.5-1.1,0.9-1.6,1.2c-0.5,0.4-5.3,5.3-7.4,7.7c-0.2,0.3-0.5,0.6-0.7,0.8   c-0.3,0.4-0.6,0.8-0.9,1.1c14.1-3,38.2-16.2,48-20.7c0,0,0,0,0,0c2-0.9,3.2-1.5,3.2-1.5s5.7-2.6,7.6-6c0.1-0.1,0.1-0.2,0.2-0.3   C66.8,49.3,53.2,60,46.6,65.1z"></path><path fill="#ffffff" d="M44.1,65.3C44.1,65.3,44.1,65.2,44.1,65.3c0.5-0.4,1.1-0.8,1.6-1.3c1.4-1.1,3.2-2.5,5.4-4   c-24,5.2-27.9-3.8-27.9-3.8v-3.4c5.5,9.5,29,4.8,33.4,3.8c2.8-1.6,6.1-3.2,9.9-4.7c1.4-1.2,2.9-2.9,2.8-4.2l0.3,3.1   c3.5-1.2,7.5-2.2,11.9-3.1c-0.4,0-0.7,0-1.1,0c-3.8-0.2-8.1-0.8-11.2-1.3c-0.3-3.5-0.8-7.7-1.5-10.9c-0.7-3.1-1.8-8.6-5.2-11.1   c-3.4-2.4-9.4,0.5-9.4,0.5c-4.9-4.7-18.6,1.1-22,2.9c-3.4,1.8-4.4,3.7-5.3,6c-0.4,1-1,4.9-1.5,8.9c-4.5-0.8-16.5-1.9-18.5,7   c-2.6,11,1,25.3,12.8,26.2l10.8,1c0,0,0.7-0.1,1.8-0.2l0,0c0.5,0,0.9,0,1.4-0.1c1.6-0.5,2.3-1.4,3.2-2.6c0.2-0.3,0.4-0.6,0.7-0.9   C38.8,70.5,43.9,65.5,44.1,65.3z M65.4,39.2c0.6,0,1,0.5,1,1c0,0.6-0.5,1-1,1c-0.6,0-1-0.5-1-1C64.4,39.6,64.9,39.2,65.4,39.2z    M61.1,41.1c0.6,0,1,0.5,1,1c0,0.6-0.5,1-1,1c-0.6,0-1-0.5-1-1C60.1,41.6,60.6,41.1,61.1,41.1z M56.5,43c0.6,0,1,0.5,1,1   c0,0.6-0.5,1-1,1c-0.6,0-1-0.5-1-1C55.4,43.5,55.9,43,56.5,43z"></path></g></svg>