<svg height='100px' width='100px'  fill="#ffffff" xmlns="http://www.w3.org/2000/svg" xmlns:xlink="http://www.w3.org/1999/xlink" version="1.1" x="0px" y="0px" viewBox="0 0 100 100" style="enable-background:new 0 0 100 100;" xml:space="preserve"><path d="M32.9,31.7c3-0.2,5.2-0.2,7.5-0.5c2.3-0.3,4.7-0.1,7,0.3c2.4,0.4,4.4,0.1,6.2-2c2.8-3.4,6.9-5,10.9-6.8  c2.8-1.3,5.6-1.7,8.6-1c1.9,0.5,3.9,0.6,5.9,0.6c3,0.1,5.4,1.3,7.3,3.5c1,1.1,2,2,3.2,2.9C94,32.3,96.6,37,96.9,43  c0.2,4.5,0.6,9-0.5,13.4c-1.1,4.4-3,8.5-5.4,12.3c-1.3,2.1-3.5,3.1-5.9,3.6c-6.3,1.3-12.5,0.9-18.6-0.7c-0.9-0.2-1.7-0.6-2.3-1.3  c-0.8-0.8-1.4-0.8-2.3,0c-3.8,3.5-8.4,5.3-13.6,5.8c-2.4,0.2-4.7,0.8-7.1,1.2c-4.2,0.7-8.4,0.2-12.6,0.3c-3.3,0.1-6.6,0.1-9.9-0.2  c-1.7-0.1-3.3-0.4-4.9-1.2c-2.2-1.2-4.5-2.2-6.6-3.6c-1.8-1.3-2.8-3.1-3.4-5.3C2.4,63.1,2.9,59,2.8,54.9c0-1.1,0.3-2.3,0.7-3.4  c1.3-4.3,2.6-8.6,5.3-12.3c1.9-2.5,4.6-4.1,7.6-4.7c2.6-0.5,5.2-1.2,7.9-1.7C27.4,32,30.4,31.3,32.9,31.7z M78.5,24.2  c-2.2,0.3-3.8,2.2-6.2,2.5c0.7-1.1,2.2-1.3,2.7-2.6c-0.5,0-0.9-0.1-1,0c-2.1,2.2-5.2,2.7-7.5,4.7c-0.4,0.3-0.9,0.3-1.3,0  c-0.4-0.3-0.4-0.8-0.3-1.2c0.1-0.4,0.2-0.9,0.6-1.2c1.3-1.1,3-1.7,4.4-1.5c1.3,0.2,1.7-0.4,2.5-1c-1.4-0.9-2.5-0.8-3.8,0  c-1.4,0.9-2.9,1.6-4.6,2.5c0.5-1.7,2.1-1.6,3-2.9c-5,2.1-9.9,3.8-12.9,8.6c1.6,0.4,2.9,0.8,4.3,1.2c2.3,0.6,4.6,1.5,6.3,2.9  c4.2,3.3,6.5,8,7.9,13.1c0.1,0.3,0.1,0.5,0,0.8c-0.6,4-1.1,8-3.2,11.6c-1,1.8-2.1,3.6-3.6,5c-0.7,0.7-0.7,1.3-0.1,2.1  c0.6,0.8,1.3,1.4,2.4,1.6c2.5,0.6,5,1.1,7.7,0.7c2.6-0.4,5.3,0.6,7.9,0.1c2.1-0.4,4.2-0.8,5.5-3c-2.1-0.6-3.2,1.2-4.9,1.5  c-1.7,0.4-3.3,0.9-5.1,0.3c1.3-1.4,3.4-0.4,4.7-1.6c-0.3-0.6-1.2-0.6-1.9-1.3c1.7-0.2,2.9-0.5,3.9-1.7c0.6-0.8,2-1.2,3.6-0.8  c-0.9,0.6-1.5,1-2,1.4c-0.4,0.3-0.4,0.8,0.1,1c1.1,0.4,3.2-0.2,3.5-1.3c0.7-2.1,2-3.8,2.6-5.9c1-3.6,1.6-7.4,1.7-11.1  c0.1-2,0.2-4.1-0.5-6.1c-3.8,2-7.2,4.8-11.7,4.5c3.4-1.2,6.3-3.4,9.6-4.7c2.2-0.9,2.4-1.9,1.4-4c-1.7-3.7-4.2-6.6-7.5-9  c-0.6-0.4-1-0.2-1.5,0c-1.4,0.5-2.8,1.2-4.4,1.1c1.1-1.6,3.1-1.4,4.5-2.5c-0.9-1.2-1.7-1.6-3.2-0.8c-1.7,0.9-3.4,2-5.5,2.2  c1.8-1.2,4-1.9,5.6-3.7C81,24.5,79.7,24.3,78.5,24.2L78.5,24.2z M30.2,74.5c1.8-0.8,3-2.3,4.6-3.3c0.2-0.1,0.5-0.1,0.6,0.1  c0,0.7-1.1,0.9-1,1.7c0.9,0.2,1.7-0.7,2.5-0.1c-0.5,0.9-1.3,0.7-2.1,0.9c-0.5,0.1-1,0.2-1,0.7c0,0.7,0.6,0.8,1.1,0.8  c0.6,0,1.3,0,1.9,0c2.7-0.2,5.4-0.3,8-0.7c4.7-0.7,9.4-1.6,13.5-4.3c3.8-2.5,7.2-5.3,8.6-9.6c-2.6,0.9-5.5,0.6-8.1,1.8  c1.9-1.9,2-2,3.3-2.3c4.4-1.1,7.5-4.9,7.7-9.4c0-0.7,0.3-1.5-0.2-2.1c-0.5-0.6-1.3,0.3-1.9-0.3c1.5-1.5,1.4-1.5,0.5-3.7  c-0.7-1.6-1.6-3-2.9-4.2c-1-0.9-2.2,0.5-3.3,0c0.2-0.9,1.4-0.7,1.7-1.5c-0.4-0.8-0.9-1.3-1.8-1.4l0,0c-1.4-2.1-1.4-2.1-3.3-0.7  c-0.4,0.3-0.8,0.4-1.3,0.4c-0.6,0-1.3,0.1-1.8,0.5c-1.1,0.9-2.2,0.7-3.7,0.4c1.6-1.9,4-1.8,5.5-3.1c-1.1-1.1-2.3-0.6-3.4-0.4  c-0.5,0-1.1,0.6-1.4,0c-0.6-1-1.4-0.6-2.1-0.4c-1,0.4-1.7,0.2-2.5-0.6c-0.8-0.8-2.1-0.8-3.3-0.4c-0.8,0.3-1.8,0.8-2.6,0.6  c-2.5-0.7-5-0.2-7.4-0.3c-2.2,0-2.2,0-2.3,2.4c0,0,0-0.1,0-0.1c-0.1,0.1-0.3,0.3-0.4,0.3c-2,0.7-2,0.7-2.3-1.4  c-0.1-0.4-0.1-0.8-0.5-0.8c-1.5,0-3.1-0.3-4.5,0.4c-0.3,0.2-0.7,0.4-0.4,0.8c0.1,0.2,0.5,0.4,0.7,0.3c0.8-0.3,1.7-0.6,2.5-0.9  c0.2-0.1,0.6,0,0.7,0.3c0.1,0.4,0,0.8-0.4,0.8c-1.9,0.2-3.5,1.4-5.4,1.5c-0.1-0.6,0.8-0.7,0.5-1.3c-0.7,0.1-1.5,0.4-2.3,0.3  c-2.6-0.2-4.8,0.5-7.1,1.9c-2.9,1.7-4.8,3.9-6,7c-1.1,2.9-1.5,5.9-2.1,8.8c-0.5,2.4-0.4,4.8-0.5,7.2c0,0.6-0.2,1.4,0.7,1.5  c0.8,0,0.9,0.1,0.6,0.8c-1.2,3.1-0.9,4.2,1.7,6.3c6.1,4.8,13.3,5.9,20.8,6C29.5,75.8,30.3,75.6,30.2,74.5L30.2,74.5z M31.8,74.4  c-0.3,0.1-0.7,0.3-0.6,0.7c0,0.4,0.4,0.4,0.8,0.4c0.3,0,0.5-0.2,0.5-0.5C32.4,74.6,32.2,74.4,31.8,74.4z"></path><path d="M32.4,36.3c1.1-0.5,1.9-1.7,3.6-1.2C34.9,36.1,33.8,36.5,32.4,36.3C32.4,36.2,32.4,36.3,32.4,36.3z"></path><path d="M45.6,66.2c0.8,1.2-0.3,2.3-0.1,3.4c4.3,0.4,7.1-3,10.7-4.4c-0.9,1.5-2.7,2-3.8,3.5c0.5,0.1,1,0.2,1.7,0.3  c-0.7,1-1.6,1.5-2.5,1.8c-2.3,0.7-4.4,2.3-7,0.9c-0.3-0.1-0.8,0.3-1.2,0.4c-0.7,0.2-1.2,0.8-2,0.4c-0.1-0.6,0.4-0.7,0.7-0.9  c1.4-1,1.5-1,0.2-2.3c-0.6-0.6-0.5-1.2,0-1.6C43.3,67,44.3,66.2,45.6,66.2z"></path><path d="M9.3,43.3c2.1-0.9,3.8-2.5,5.7-3.6c1-0.6,2.2-1.3,3.5-0.5c0.6,0.4,0.6,0.8,0.1,1.3c-0.2,0.2-0.5,0.2-0.7,0.3  c-2.8,1-5.5,2-8.3,2.9C9.5,43.6,9.4,43.4,9.3,43.3z"></path><path d="M50.6,40.3c-0.9,0.8-2,1.3-2.2,2.6c-1.4-0.4-1.3-1.6-2-2.3c-0.6-0.7,0-2.2,0.9-2.7c0.4-0.2,0.8-0.1,0.9,0.2  C48.4,39.3,49.8,39.4,50.6,40.3z"></path><path d="M9.1,59.6c-0.4-0.7-0.7-1.1-1-1.5c-0.4-0.5-1.2-0.7-0.9-1.5c0.3-0.9,0.8-1.6,1.6-2.1c0.4-0.3,0.8-0.2,1.2,0  c0.4,0.3,0.7,0.5,0.5,1.1C10,56.9,10.1,58.3,9.1,59.6z"></path><path d="M21.9,52.5c-0.8,0.7-1.2,1-1.5,1.4c-0.5,0.5-0.7,1.4-1.6,0.8c-0.8-0.5-1.3-3-0.7-3.4c0.8-0.5,1.7-0.6,2.4,0.2  C20.7,51.9,21.1,52.3,21.9,52.5z"></path><path d="M30.2,74.5c-0.4-0.3-1.2,0-1.4-0.6c-0.3-0.7-0.5-1.5-0.5-2.3c0-0.7,2.2-1.8,3.1-1.6c0.8,0.2,0.7,0.8,0.4,1.3  C31.4,72.4,30.8,73.4,30.2,74.5C30.2,74.5,30.2,74.5,30.2,74.5z"></path><path d="M64.1,52c0,0.6-1.2,2.6-1.7,2.4c-0.6-0.3-1.5-0.3-1.6-1.2c-0.2-1,0.8-2.7,1.6-2.7C63.3,50.5,64,50.9,64.1,52z"></path><path d="M54.8,70.2c0.7-2.1,1.4-3.8,3.3-4.6c0.4-0.2,0.8-0.5,1.2-0.1c0.4,0.4,0.4,1.1-0.1,1.5C57.9,68,56.5,69,54.8,70.2z"></path><path d="M15.4,44.2c-2.3,1.2-4.5,1.5-6.8,2.9C10,44.9,12.3,44,15.4,44.2z"></path><path d="M53.5,58.4c2.3-1.6,2.3-1.6,6.3-2.1C58.5,57.3,57,57.8,53.5,58.4z"></path><path d="M13.6,47.5c-1,1.7-2.9,1.4-4.1,2.4C10.5,48.2,11,47.9,13.6,47.5z"></path><path d="M7.1,52.8c1.2-0.9,2.4-1.8,4.3-1.4C10.1,52.8,8.5,52.5,7.1,52.8z"></path><path d="M62,37.7c-1.2,0.9-2.5,1.6-4.2,1.6C58.9,37.6,60.3,37.3,62,37.7C62,37.8,62,37.7,62,37.7z"></path><path d="M60.9,43.9c1.6-1,2.8-1.7,4.7-1.1C64,43.5,62.8,44.1,60.9,43.9z"></path><path d="M57,52.6c-0.8,1-1.8,1.4-3.4,1.5C54.8,53.1,55.7,52.6,57,52.6z"></path><path d="M65.4,55.9c0.8-1,1.6-2.1,2.5-3.2C67.7,54.7,67.5,55.1,65.4,55.9z"></path><path d="M39.5,36.9c-1.3,0.8-2.3,1.1-3.9,1.2C36.9,37.1,37.7,36.3,39.5,36.9z"></path><path d="M64.9,62.9c-0.9,1-2.1,1.4-3.4,1.5C62.5,63.4,63.7,63.1,64.9,62.9z"></path><path d="M50.7,53.3c1.2-1.5,2.3-1.7,3.7-1.2C53.3,52.4,52.2,52.8,50.7,53.3z"></path><path d="M15.5,70.2c0.9-0.9,1.7-1.4,2.7-1.8C17.5,69.6,17.5,69.6,15.5,70.2z"></path><path d="M65.7,45c-1.2,0.8-1.9,1.3-2.8,1.1C63.8,45.1,63.8,45.1,65.7,45z"></path><path d="M21.5,70.6c0.9-1.1,1.4-1.8,2.6-1.4C23.2,70.2,23.2,70.2,21.5,70.6z"></path><path d="M46.9,34.6c-1.1,0.4-2,0.8-3,0.7C45,34.3,45,34.3,46.9,34.6z"></path><path d="M60.8,45.9c-1.1,0.6-1.8,1-2.8,0.7C58.7,45.7,59.4,45.5,60.8,45.9z"></path><path d="M54.5,63.2c0.7-1.1,1.1-1.7,2.1-1.7C56.6,62.6,55.7,62.6,54.5,63.2z"></path><path d="M10.3,65.6c-0.1-0.1-0.4-0.2-0.4-0.2c0.1-0.4,0.4-0.7,0.9-0.9c0.3-0.1,0.5,0.1,0.5,0.4C11.2,65.3,10.7,65.4,10.3,65.6z"></path><path d="M14.3,71.4c-0.1,0.2-0.2,0.5-0.4,0.6c-0.2,0.1-0.5,0.1-0.4-0.3c0.1-0.2,0.3-0.4,0.5-0.5C14,71.1,14.2,71.3,14.3,71.4z"></path><path d="M92.1,37.9c-0.8,2.3-8.5,7-10.6,7c-0.1-0.5,0.1-0.9,0.5-1.1C85.3,41.8,88.7,39.9,92.1,37.9z"></path><path d="M93.6,48.5c1.6,3.3,1.6,3.3-1.9,3.7c-0.1,0-0.2,0-0.3,0c-0.7,0.1-1.8,0.6-1.9-0.6c-0.1-0.9,0.1-2.2,1.4-2.2  C91.9,49.4,92.7,48.8,93.6,48.5z"></path><path d="M76.9,55.6c0.3,0,0.5,0,0.8-0.1c0.6-0.1,1.1,0.1,1.2,0.7c0.1,0.5,0,1.1-0.6,1.4c-1.4,0.7-2.8,0.6-4.1,0.1  c-0.7-0.2-0.6-0.8-0.2-1.3C74.7,55.5,75.8,55.4,76.9,55.6z"></path><path d="M89.1,36.2c0.4-0.4,0.9-0.5,1.7-0.3c-0.4,1.2-1.2,1.8-2.3,2.2c-1.1,0.4-2.1,0.8-2.8,1.9C85.2,41,84,41,83.1,41.2  c0.7-0.8,1.4-1.6,2-2.4c0.5-0.8,1.2-1.6,2.4-1.4C88,37,88.6,36.6,89.1,36.2z"></path><path d="M72.5,69.9c-0.4,0-0.7,0.1-1.1,0c-0.7-0.1-0.9-0.6-0.5-1.1c0.4-0.5,0.9-0.9,1.4-1.3c0.8-0.5,1.6-0.8,2.5-0.2  c0.4,0.2,0.4,0.6,0.3,0.9c-0.3,1-1,1.7-2.1,1.7C72.8,69.9,72.7,69.9,72.5,69.9C72.5,69.9,72.5,69.9,72.5,69.9z"></path><path d="M85.1,34.7c-0.7,0-1.3-0.2-1.2-1c0-0.8,2.2-2.5,3-2.3c0.7,0.2,0.9,0.8,0.9,1.5C87.8,34.1,86.8,34.8,85.1,34.7z"></path><path d="M94.6,44.8c-1.5,1.9-3.5,2.8-6,3.5C89.6,47.1,92.7,45.3,94.6,44.8z"></path><path d="M89.1,36.2c-0.5,0.4-1.1,0.8-1.6,1.1c-0.3-0.4-0.8-1-0.3-1.4c0.8-0.8,1.7-1.8,3-1.9C90.4,35.2,89.2,35.4,89.1,36.2z"></path><path d="M78.4,24.2c0.1,0.7,0.9,1.6-0.6,2c-1,0.3-1.8,1.1-3.2,1.2C75.7,25.8,77.4,25.4,78.4,24.2C78.5,24.2,78.4,24.2,78.4,24.2z"></path><path d="M86.6,53.9c-0.4,0.8-1.3,0.9-2,1.2c-0.4,0.2-0.9,0.4-1.2-0.1c-0.1-0.2,0-0.5,0-0.8c0.1-0.4,0.4-1,0.9-0.7  C85,53.8,85.9,53.3,86.6,53.9z"></path><path d="M89.4,57.2c0.2-1.7,0.2-1.7,2.4-2.2C91,56.4,91,56.4,89.4,57.2z"></path><path d="M90.3,59.8c-1.3,1.1-2.3,1.9-4.1,2C87.4,60.4,88.5,59.9,90.3,59.8z"></path><path d="M84.7,37.3c-1,0.9-2.3,1.2-4.2,1.4C82,37.4,83.4,37.4,84.7,37.3z"></path><path d="M78.9,42.6c0.9-0.3,1.9-0.6,3.2-1.1c-0.8,1.7-2,1.4-3,1.6C79,43,78.9,42.8,78.9,42.6z"></path><path d="M81.2,31.2c-0.4,1.8-1.5,1.6-2.7,1.5C79.1,31.5,80.1,31.5,81.2,31.2z"></path><path d="M79.1,64.9c0.6-0.7,1.5-0.8,2.4-0.9C80.5,64.9,80.5,64.9,79.1,64.9z"></path><path d="M85.6,58.9c0.5-0.9,1.2-1.4,2.4-1.2C87.5,58.8,86.6,58.8,85.6,58.9z"></path><path d="M80.1,36.9c0.8-0.4,1.4-1,2.4-0.8C81.9,37.2,81.1,37.2,80.1,36.9z"></path><path d="M78.6,40c-0.1,0.2-0.2,0.5-0.3,0.6c-0.2,0.2-0.5,0.6-0.9,0.4c-0.3-0.1-0.4-0.4-0.2-0.6c0.3-0.3,0.8-0.4,1.2-0.6  C78.4,39.8,78.5,39.9,78.6,40z"></path><path d="M84.7,49.3c0-0.1,0-0.2,0.1-0.2c0.3-0.3,0.7-0.6,1.2-0.5c0.3,0,0.5,0.2,0.2,0.5c-0.3,0.4-0.8,0.3-1.2,0.3  C84.9,49.4,84.8,49.3,84.7,49.3z"></path><path d="M56.6,30.3c0.1,0.2,0.2,0.4,0.2,0.5c0,0.3-0.2,0.5-0.5,0.4c-0.1,0-0.3-0.3-0.2-0.4C56.2,30.7,56.4,30.5,56.6,30.3z"></path></svg>