<svg height='100px' width='100px'  fill="#ffffff" xmlns="http://www.w3.org/2000/svg" xmlns:xlink="http://www.w3.org/1999/xlink" version="1.1" x="0px" y="0px" viewBox="0 0 50 50" style="enable-background:new 0 0 50 50;" xml:space="preserve"><g><path d="M7.5,20.9C4,20.7,1,22.3,1,22.3s1.7,2.3,4.4,3.7C5.9,24.5,6.5,22.8,7.5,20.9z"></path><path d="M24.9,36.7l-1.3-4.5c-3,1.2-6.1,1.6-8.9,1.6l4,14.2c0.2,0.7,1,1,1.7,0.6l6.1-3.8c0.3-0.2,0.5-0.6,0.4-1l-1.5-5.3   c6.4-2.7,7.7-7,5.8-11.3c-0.5,0.5-0.9,0.9-1.4,1.4C31.1,32.4,28.7,35,24.9,36.7z"></path><path d="M45.4,2.4c-0.9,0.5-1.3,1.6-1,2.5L43,5.7l-2.5-4c-0.3-0.4-0.8-0.6-1.3-0.3c-0.4,0.3-0.6,0.8-0.3,1.3l2.5,4l-1.6,1l-1.7-2.7   c-0.3-0.4-0.8-0.6-1.3-0.3c-0.4,0.3-0.6,0.8-0.3,1.3l1.7,2.7l-1.4,0.9l0.8,1.3l1.4-0.9l1.4,2.2c0.3,0.4,0.8,0.6,1.3,0.3   c0.4-0.3,0.6-0.8,0.3-1.3L40.7,9l1.6-1l2.2,3.5c0.3,0.4,0.8,0.6,1.3,0.3c0.4-0.3,0.6-0.8,0.3-1.3l-2.2-3.5l1.4-0.9   c0.8,0.6,1.8,0.7,2.7,0.2c1.1-0.7,1.4-2.1,0.8-3.2C48,2,46.5,1.7,45.4,2.4z M47.2,5.3C46.7,5.7,46,5.5,45.7,5   c-0.3-0.5-0.2-1.2,0.4-1.6c0.5-0.3,1.2-0.2,1.6,0.4C47.9,4.3,47.8,5,47.2,5.3z"></path><path d="M30.5,4.7c-1.1,1.8-1.1,4.1,0.1,6l4.6,7.3c1.1,1.8,3.2,2.9,5.3,2.7c0.6,0,0.9-0.7,0.6-1.2L31.8,4.7   C31.5,4.2,30.8,4.2,30.5,4.7z"></path><path d="M28.3,10.2c-3.8,0.2-8.1,1.1-11.8,3.4C7.7,19,6.2,30.6,6.2,30.6s8.8,3,17-0.2c1.6,2.2,4.1,2.5,4.2,2.5c0.5,0.1,1-0.3,1-0.8   c0.1-0.5-0.3-1-0.8-1c0,0-1.6-0.2-2.7-1.5c4.1-2.1,7.1-5.7,9.3-9.7C33.9,19.6,28.8,11.8,28.3,10.2z M20.2,24.4l-1.6-3L13,29.2   l5.5-11.4l1.8,3.6l4.5-8.3l2.3,2.3L20.2,24.4z"></path></g></svg>